STARTFONT 2.3
FONT -FontForge-Righteous-Book-R-Normal--20-200-72-72-P-108-ISO10646-1
SIZE 20 72 72  2
FONTBOUNDINGBOX 25 25 -3 -5
COMMENT "Generated by fontforge, http://fontforge.sourceforge.net"
COMMENT "Copyright (c) 2011 by Brian J. Bonislawsky DBA Astigmatic (AOETI) (astigma@astigmatic.com), with ReservedFont Name "Righteous""
STARTPROPERTIES 40
FOUNDRY "FontForge"
FAMILY_NAME "Righteous"
WEIGHT_NAME "Book"
SLANT "R"
SETWIDTH_NAME "Normal"
ADD_STYLE_NAME ""
PIXEL_SIZE 20
POINT_SIZE 200
RESOLUTION_X 72
RESOLUTION_Y 72
SPACING "P"
AVERAGE_WIDTH 108
CHARSET_REGISTRY "ISO10646"
CHARSET_ENCODING "1"
FONTNAME_REGISTRY ""
CHARSET_COLLECTIONS "ISO8859-2 ISO8859-9 ISO8859-4 ISO10646-1"
BITS_PER_PIXEL 2
FONT_NAME "Righteous-Regular"
FACE_NAME "Righteous"
COPYRIGHT "Copyright (c) 2011 by Brian J. Bonislawsky DBA Astigmatic (AOETI) (astigma@astigmatic.com), with ReservedFont Name "Righteous""
FONT_VERSION "1.000"
FONT_ASCENT 16
FONT_DESCENT 4
UNDERLINE_POSITION -3
UNDERLINE_THICKNESS 1
X_HEIGHT 10
CAP_HEIGHT 13
RAW_ASCENT 799
RAW_DESCENT 200
NORM_SPACE 6
RELATIVE_WEIGHT 40
RELATIVE_SETWIDTH 50
SUPERSCRIPT_X 0
SUPERSCRIPT_Y 9
SUPERSCRIPT_SIZE 12
SUBSCRIPT_X 0
SUBSCRIPT_Y 2
SUBSCRIPT_SIZE 12
AVG_LOWERCASE_WIDTH 106
AVG_UPPERCASE_WIDTH 126
ENDPROPERTIES
CHARS 372
STARTCHAR space
ENCODING 32
SWIDTH 279 0
DWIDTH 6 0
BBX 1 1 0 0
BITMAP
00
ENDCHAR
STARTCHAR exclam
ENCODING 33
SWIDTH 274 0
DWIDTH 6 0
BBX 4 15 1 -1
BITMAP
FD
FD
BD
BD
BD
BC
BC
BC
7C
7C
64
24
BD
BD
24
ENDCHAR
STARTCHAR quotedbl
ENCODING 34
SWIDTH 409 0
DWIDTH 8 0
BBX 6 5 1 9
BITMAP
FAF0
F9F0
B9F0
B5F0
5450
ENDCHAR
STARTCHAR numbersign
ENCODING 35
SWIDTH 561 0
DWIDTH 11 0
BBX 11 10 0 2
BITMAP
00A190
01F2E0
0AFBE4
0FFFF4
07DB90
07CF80
3FFFD0
7FFFC0
1F2E00
1A2900
ENDCHAR
STARTCHAR dollar
ENCODING 36
SWIDTH 458 0
DWIDTH 9 0
BBX 8 14 1 0
BITMAP
0780
0780
0794
7FFC
FEA8
F500
BFF4
2FFD
003D
FFFC
FFF4
0780
0780
0780
ENDCHAR
STARTCHAR percent
ENCODING 37
SWIDTH 685 0
DWIDTH 14 0
BBX 13 15 0 0
BITMAP
01000000
1FD02E00
3EF03C00
78B4B400
78B5F000
3CB6D000
2FE78000
0A8F4000
001E6A00
003DFF40
00BAD3C0
00F2D3C0
02D2D3C0
07C1FB80
0B40BE00
ENDCHAR
STARTCHAR ampersand
ENCODING 38
SWIDTH 485 0
DWIDTH 10 0
BBX 8 14 1 0
BITMAP
01D0
02E4
2FFE
7FFD
B400
B800
7FF0
7FF0
B800
B400
7EA9
2FFE
06E5
01D0
ENDCHAR
STARTCHAR quotesingle
ENCODING 39
SWIDTH 238 0
DWIDTH 5 0
BBX 3 5 1 9
BITMAP
F8
F8
B8
B4
54
ENDCHAR
STARTCHAR parenleft
ENCODING 40
SWIDTH 351 0
DWIDTH 7 0
BBX 7 18 0 -2
BITMAP
02F4
07E0
0FC0
1F80
2F40
3F00
3E00
7E00
7E00
7E00
3E00
3F00
2F00
2F40
0FC0
0BD0
07F0
02F4
ENDCHAR
STARTCHAR parenright
ENCODING 41
SWIDTH 351 0
DWIDTH 7 0
BBX 7 18 0 -2
BITMAP
7E00
2F40
0FC0
0BD0
07E0
03F0
02F0
02F4
02F4
02F4
02F4
03F0
03E0
07E0
0FC0
1F80
3F40
7E00
ENDCHAR
STARTCHAR asterisk
ENCODING 42
SWIDTH 589 0
DWIDTH 12 0
BBX 10 11 1 6
BITMAP
01A400
02F400
12F440
BEFBD0
FFFFF0
2FFF80
0BFD00
1FFE00
3FAF80
2E0F80
080500
ENDCHAR
STARTCHAR plus
ENCODING 43
SWIDTH 485 0
DWIDTH 10 0
BBX 9 9 0 3
BITMAP
005000
01F400
01F400
16F940
7FFFC0
7FFFC0
16F540
01F400
01F400
ENDCHAR
STARTCHAR comma
ENCODING 44
SWIDTH 264 0
DWIDTH 5 0
BBX 4 6 1 -3
BITMAP
64
FD
FD
7C
38
10
ENDCHAR
STARTCHAR hyphen
ENCODING 45
SWIDTH 528 0
DWIDTH 11 0
BBX 9 4 1 5
BITMAP
555500
BFFF40
BFFF40
555500
ENDCHAR
STARTCHAR period
ENCODING 46
SWIDTH 263 0
DWIDTH 5 0
BBX 4 4 1 -1
BITMAP
64
FD
FD
64
ENDCHAR
STARTCHAR slash
ENCODING 47
SWIDTH 490 0
DWIDTH 10 0
BBX 9 14 0 0
BITMAP
000FC0
001F80
002F40
003E00
00BD00
00FC00
01F800
02F000
03E000
0BD000
0FC000
1F4000
2F0000
7E0000
ENDCHAR
STARTCHAR zero
ENCODING 48
SWIDTH 642 0
DWIDTH 13 0
BBX 11 16 1 -1
BITMAP
001000
07FE40
2FFFD0
7F9BF0
BD01F4
FC00F8
F800BC
F800BC
F800BC
F800BC
FC00F8
BD01F8
7F9BF0
2FFFD0
07FF40
001000
ENDCHAR
STARTCHAR one
ENCODING 49
SWIDTH 317 0
DWIDTH 6 0
BBX 5 14 0 0
BITMAP
7FC0
7FC0
6FC0
0FC0
0FC0
0FC0
0FC0
0FC0
0FC0
0FC0
0FC0
0FC0
0FC0
0FC0
ENDCHAR
STARTCHAR two
ENCODING 50
SWIDTH 570 0
DWIDTH 11 0
BBX 10 14 1 0
BITMAP
BFFD00
BFFF80
6AAFD0
0007E0
0007E0
015BD0
1FFFC0
7FFE00
FE5400
F80000
F80000
FEAA90
FFFFD0
FFFFD0
ENDCHAR
STARTCHAR three
ENCODING 51
SWIDTH 586 0
DWIDTH 12 0
BBX 10 14 1 0
BITMAP
FFFD00
FFFF80
AAAFD0
0007E0
0003E0
055BE0
1FFFC0
1FFFC0
055BE0
0003E0
0007E0
AAAFD0
FFFF80
FFFD00
ENDCHAR
STARTCHAR four
ENCODING 52
SWIDTH 630 0
DWIDTH 13 0
BBX 12 14 0 0
BITMAP
0FC000
0F81A4
1F81F4
1F41F4
1F41F4
2F01F4
2F01F4
3F01F4
3FAAF9
7FFFFE
7FFFFE
1556F8
0001F4
0001F4
ENDCHAR
STARTCHAR five
ENCODING 53
SWIDTH 585 0
DWIDTH 12 0
BBX 10 14 1 0
BITMAP
7FFFD0
7FFFD0
7FAA90
BD0000
BC0000
BEA900
FFFF80
FFFFD0
0007F0
0003F0
0003F0
AAAFE0
FFFFC0
FFFE00
ENDCHAR
STARTCHAR six
ENCODING 54
SWIDTH 615 0
DWIDTH 12 0
BBX 12 15 0 -1
BITMAP
00BE00
02F800
07E000
0FD500
1FFFE0
2FFFF8
3FD6FC
3F00BD
7E007E
7F007E
3F40BD
2FE6FC
0BFFF4
02FFD0
001500
ENDCHAR
STARTCHAR seven
ENCODING 55
SWIDTH 516 0
DWIDTH 10 0
BBX 10 14 0 0
BITMAP
BFFFF0
BFFFE0
6AAFD0
000BC0
000F80
002F40
003F00
007E00
00BD00
00FC00
01F800
02F400
03F000
07E000
ENDCHAR
STARTCHAR eight
ENCODING 56
SWIDTH 618 0
DWIDTH 12 0
BBX 12 16 0 -1
BITMAP
001500
02FF90
0BFFF4
1FD6F8
1F40F8
1F80F8
0FEBF4
07FFE0
1FEBF8
3F40BD
7E007E
7E007E
3F41FD
1FFFF8
06FFD0
001500
ENDCHAR
STARTCHAR nine
ENCODING 57
SWIDTH 616 0
DWIDTH 12 0
BBX 12 15 0 0
BITMAP
001500
02FF90
0FFFF4
2FEBFC
3F00FD
7E00BD
7E00BE
3F00BD
3F96FD
1FFFFC
07FFF8
0056F4
0007E0
001FC0
007F40
ENDCHAR
STARTCHAR colon
ENCODING 58
SWIDTH 276 0
DWIDTH 6 0
BBX 4 10 1 -1
BITMAP
10
BC
FD
7C
00
00
24
BD
BD
24
ENDCHAR
STARTCHAR semicolon
ENCODING 59
SWIDTH 276 0
DWIDTH 6 0
BBX 4 12 1 -3
BITMAP
10
BC
FD
7C
00
00
24
BD
BD
2D
38
10
ENDCHAR
STARTCHAR less
ENCODING 60
SWIDTH 478 0
DWIDTH 10 0
BBX 8 12 1 2
BITMAP
0010
00B8
02FD
0BF4
1FD0
7F40
FE00
7F80
1FE0
07FC
01FD
0074
ENDCHAR
STARTCHAR equal
ENCODING 61
SWIDTH 539 0
DWIDTH 11 0
BBX 9 8 1 3
BITMAP
555540
BFFF40
BFFF40
555500
555540
BFFF40
BFFF40
555500
ENDCHAR
STARTCHAR greater
ENCODING 62
SWIDTH 478 0
DWIDTH 10 0
BBX 8 12 1 2
BITMAP
0400
7D00
BF40
2FC0
0BF0
02FC
01FE
07F8
1FE0
7F80
BE00
2800
ENDCHAR
STARTCHAR question
ENCODING 63
SWIDTH 603 0
DWIDTH 12 0
BBX 12 15 0 -1
BITMAP
7FFF90
7FFFF4
6AABFC
0000BD
00007D
0005FC
007FF8
00FFE0
02F940
02F000
01A000
019000
03F000
03F000
019000
ENDCHAR
STARTCHAR at
ENCODING 64
SWIDTH 629 0
DWIDTH 13 0
BBX 12 12 0 -1
BITMAP
006A40
07FFE0
1F91BC
2E2BAD
3CFF9E
79E78F
38FBDF
3CBFFE
1E1554
0BE900
02FE00
001500
ENDCHAR
STARTCHAR A
ENCODING 65
SWIDTH 673 0
DWIDTH 13 0
BBX 12 14 1 0
BITMAP
02FE40
0FFFE0
3FFFF4
7F02FC
BD00BD
FC007D
FC007D
FC007D
FEAABD
FFFFFD
FFFFFD
FD55BD
FC007D
FC007D
ENDCHAR
STARTCHAR B
ENCODING 66
SWIDTH 666 0
DWIDTH 13 0
BBX 12 14 1 0
BITMAP
BFFF90
BFFFF4
BEABFC
BC00BD
BC007D
BD55FD
BFFFF8
BFFFF8
BD55FD
BC007D
BC00BD
BEABFC
BFFFF4
BFFF90
ENDCHAR
STARTCHAR C
ENCODING 67
SWIDTH 640 0
DWIDTH 13 0
BBX 13 16 0 -1
BITMAP
00010000
006FF900
02FFFF40
0BFABF00
1FD00900
3F400000
7E000000
7D000000
7D000000
7E000000
3F400000
2FD00500
0BFABE00
02FFFF40
007FF900
00014000
ENDCHAR
STARTCHAR D
ENCODING 68
SWIDTH 653 0
DWIDTH 13 0
BBX 12 14 1 0
BITMAP
BFF900
BFFF80
BEBFE0
BC07F8
BC01FC
BC00BD
BC007D
BC007D
BC00BD
BC01FC
BC07F8
BEBFE0
BFFF80
BFF900
ENDCHAR
STARTCHAR E
ENCODING 69
SWIDTH 578 0
DWIDTH 12 0
BBX 10 14 1 0
BITMAP
BFFFF0
BFFFF0
BEAAA0
BC0000
BC0000
BD5500
BFFE00
BFFE00
BD5500
BC0000
BC0000
BEAAA0
BFFFF0
BFFFF0
ENDCHAR
STARTCHAR F
ENCODING 70
SWIDTH 562 0
DWIDTH 11 0
BBX 10 14 1 0
BITMAP
BFFFF0
BFFFF0
BEAAA0
BC0000
BC0000
BD5400
BFFD00
BFFD00
BD5400
BC0000
BC0000
BC0000
BC0000
BC0000
ENDCHAR
STARTCHAR G
ENCODING 71
SWIDTH 665 0
DWIDTH 13 0
BBX 13 15 0 -1
BITMAP
006FF800
02FFFF40
0BFEBF00
1FD00900
3F400000
7E000000
7D000000
7D001F40
7E001F40
3F401F40
2FD01F40
0BFABF40
02FFFF40
007FF900
00014000
ENDCHAR
STARTCHAR H
ENCODING 72
SWIDTH 689 0
DWIDTH 14 0
BBX 12 14 1 0
BITMAP
BC007E
BC007E
BC007E
BC007E
BC007E
BD55BE
BFFFFE
BFFFFE
BD55BE
BC007E
BC007E
BC007E
BC007E
BC007E
ENDCHAR
STARTCHAR I
ENCODING 73
SWIDTH 270 0
DWIDTH 5 0
BBX 3 14 1 0
BITMAP
BC
BC
BC
BC
BC
BC
BC
BC
BC
BC
BC
BC
BC
BC
ENDCHAR
STARTCHAR J
ENCODING 74
SWIDTH 416 0
DWIDTH 8 0
BBX 8 14 0 0
BITMAP
00BD
00BD
00BD
00BD
00BD
00BD
00BD
00BD
00BD
00FC
02F8
BFF4
BFD0
BE40
ENDCHAR
STARTCHAR K
ENCODING 75
SWIDTH 625 0
DWIDTH 13 0
BBX 12 14 1 0
BITMAP
BC00FC
BC02F4
BC0BE0
BC1FC0
BC3F40
BCBD00
BEFD00
BFFF00
BFEF40
BF4FC0
BE0BE0
BC03F0
BC02F8
BC00FD
ENDCHAR
STARTCHAR L
ENCODING 76
SWIDTH 562 0
DWIDTH 11 0
BBX 10 14 1 0
BITMAP
BC0000
BC0000
BC0000
BC0000
BC0000
BC0000
BC0000
BC0000
BC0000
BC0000
BC0000
BEAAA0
BFFFF0
BFFFF0
ENDCHAR
STARTCHAR M
ENCODING 77
SWIDTH 819 0
DWIDTH 16 0
BBX 15 15 1 0
BITMAP
00400000
0BF9FF40
3FFFFFD0
7FBFEBF0
BC1F82F0
BC1F82F4
BC1F82F4
BC1F82F4
BC1F82F4
BC1F82F4
BC1F82F4
BC1F82F4
BC1F82F4
BC1F82F4
BC1F82F4
ENDCHAR
STARTCHAR N
ENCODING 78
SWIDTH 689 0
DWIDTH 14 0
BBX 12 14 1 0
BITMAP
BE007E
BF407E
BF807E
BFD07E
BFF07E
BEF87E
BCFC7E
BC7E7E
BC2FBE
BC0FFE
BC0BFE
BC03FE
BC01FE
BC00BE
ENDCHAR
STARTCHAR O
ENCODING 79
SWIDTH 777 0
DWIDTH 16 0
BBX 15 15 0 -1
BITMAP
006FF800
02FFFF40
0BFABFD0
1FD00BF0
3F4002F4
7E0000F8
7D0000BC
7D0000BC
7E0000FC
3F4002F8
2FD00BF0
0BFABFD0
02FFFF40
007FF900
00014000
ENDCHAR
STARTCHAR P
ENCODING 80
SWIDTH 642 0
DWIDTH 13 0
BBX 12 14 1 0
BITMAP
BFFE40
BFFFE0
BEAFF8
BC01FC
BC00BD
BC007D
BC00BD
BC01FC
BEABF8
BFFFE0
BFFF80
BD5000
BC0000
BC0000
ENDCHAR
STARTCHAR Q
ENCODING 81
SWIDTH 777 0
DWIDTH 16 0
BBX 15 17 0 -3
BITMAP
006FF800
02FFFF40
0BFABFD0
1FD00BF0
3F4002F4
7E0000F8
7D0000BC
7D0000BC
7E0000FC
3F4002F8
2FD00BF0
0BFABFD0
02FFFF40
007FFD00
0001BE00
00003F40
00001A80
ENDCHAR
STARTCHAR R
ENCODING 82
SWIDTH 651 0
DWIDTH 13 0
BBX 12 14 1 0
BITMAP
BFFE40
BFFFE0
BEAFF8
BC01FC
BC00BD
BC007D
BC00BD
BC01FC
BEABF8
BFFFE0
BFFFC0
BD5BD0
BC07E0
BC02F4
ENDCHAR
STARTCHAR S
ENCODING 83
SWIDTH 610 0
DWIDTH 12 0
BBX 12 14 0 0
BITMAP
06FFFC
1FFFFC
3FEAA8
7E0000
7D0000
7F5540
2FFFE0
0BFFFC
0155BD
00007E
00007E
2AAAFD
2FFFF8
2FFFD0
ENDCHAR
STARTCHAR T
ENCODING 84
SWIDTH 578 0
DWIDTH 12 0
BBX 12 14 0 0
BITMAP
BFFFFD
BFFFFD
AAFEA9
00BD00
00BD00
00BD00
00BD00
00BD00
00BD00
00BD00
00BD00
00BD00
00BD00
00BD00
ENDCHAR
STARTCHAR U
ENCODING 85
SWIDTH 673 0
DWIDTH 13 0
BBX 12 14 1 0
BITMAP
FC007D
FC007D
FC007D
FC007D
FC007D
FC007D
FC007D
FC007D
FC007D
BD00BD
7F02FC
3FFFF4
0FFFE0
02FE40
ENDCHAR
STARTCHAR V
ENCODING 86
SWIDTH 602 0
DWIDTH 12 0
BBX 12 14 0 0
BITMAP
BD007F
7E00BE
7F00FD
3F41FC
2F82F8
1FC3F4
0FC3F0
0BD7E0
07EBD0
03FFC0
02FF80
01FF40
00FF00
00BE00
ENDCHAR
STARTCHAR W
ENCODING 87
SWIDTH 819 0
DWIDTH 16 0
BBX 15 15 1 -1
BITMAP
BC1F82F4
BC1F82F4
BC1F82F4
BC1F82F4
BC1F82F4
BC1F82F4
BC1F82F4
BC1F82F4
BC1F82F4
BC1F82F4
BC1F82F0
7FBFEBF0
3FFFFFD0
0BF9FF40
00400000
ENDCHAR
STARTCHAR X
ENCODING 88
SWIDTH 608 0
DWIDTH 12 0
BBX 12 14 0 0
BITMAP
BE00BF
3F40FD
1FC2F8
0FD7F0
07FFD0
02FF80
00FF40
00FF40
02FF80
07FFD0
0BD7F0
1FC2F8
3F40FD
BE00BF
ENDCHAR
STARTCHAR Y
ENCODING 89
SWIDTH 620 0
DWIDTH 12 0
BBX 12 14 0 0
BITMAP
7D003E
7D003E
7D003E
7D003E
7D003E
7E007E
2F81FD
1FFFF8
07FFE0
00BE40
007E00
007E00
007E00
007E00
ENDCHAR
STARTCHAR Z
ENCODING 90
SWIDTH 586 0
DWIDTH 12 0
BBX 12 14 0 0
BITMAP
BFFFFC
BFFFF4
6AAFF0
000FD0
001FC0
003F40
00BE00
00FD00
02F800
03F400
0BE000
1FFAA9
2FFFFD
7FFFFD
ENDCHAR
STARTCHAR bracketleft
ENCODING 91
SWIDTH 380 0
DWIDTH 8 0
BBX 6 18 1 -2
BITMAP
BFF0
BFF0
BEA0
BC00
BC00
BC00
BC00
BC00
BC00
BC00
BC00
BC00
BC00
BC00
BC00
BEA0
BFF0
BFF0
ENDCHAR
STARTCHAR backslash
ENCODING 92
SWIDTH 490 0
DWIDTH 10 0
BBX 9 14 0 0
BITMAP
7E0000
2F0000
1F4000
0FC000
0BD000
03E000
02F000
01F800
00FC00
00BD00
003E00
002F40
001F80
000FC0
ENDCHAR
STARTCHAR bracketright
ENCODING 93
SWIDTH 380 0
DWIDTH 8 0
BBX 7 18 0 -2
BITMAP
7FF4
7FF4
6BF4
01F4
01F4
01F4
01F4
01F4
01F4
01F4
01F4
01F4
01F4
01F4
01F4
6BF4
7FF4
7FF4
ENDCHAR
STARTCHAR asciicircum
ENCODING 94
SWIDTH 293 0
DWIDTH 6 0
BBX 6 4 0 10
BITMAP
0900
2F80
BFE0
75D0
ENDCHAR
STARTCHAR underscore
ENCODING 95
SWIDTH 598 0
DWIDTH 12 0
BBX 8 3 2 -5
BITMAP
FFFF
FFFF
AAAA
ENDCHAR
STARTCHAR grave
ENCODING 96
SWIDTH 225 0
DWIDTH 5 0
BBX 5 4 0 10
BITMAP
2400
BD00
7F40
0B00
ENDCHAR
STARTCHAR a
ENCODING 97
SWIDTH 607 0
DWIDTH 12 0
BBX 11 12 0 -1
BITMAP
01A904
0BFFDC
2FFFFC
3F42FC
7D00FC
BD00BC
7D00BC
7E01FC
3FEBFC
1FFFEC
06FE48
001000
ENDCHAR
STARTCHAR b
ENCODING 98
SWIDTH 597 0
DWIDTH 12 0
BBX 12 16 0 -1
BITMAP
290000
7D0000
7D0000
7D0000
7E6A40
7FFFE0
7FFFF8
7F81FC
7E00BD
7E007D
3E007D
3F40FD
1FEBF8
0BFFF0
01FF80
000400
ENDCHAR
STARTCHAR c
ENCODING 99
SWIDTH 521 0
DWIDTH 10 0
BBX 10 12 0 -1
BITMAP
01AA00
0BFFD0
2FFFF0
3F42D0
7D0040
BD0000
BD0000
7E0180
2FEBE0
1FFFE0
02FF40
001000
ENDCHAR
STARTCHAR d
ENCODING 100
SWIDTH 606 0
DWIDTH 12 0
BBX 11 16 0 -1
BITMAP
000068
0000BC
0000BC
0000BC
01A9BC
0BFFFC
2FFFFC
3F42FC
7D00FC
BD00BC
7D00BC
7E01FC
2FEBFC
0FFFEC
02FE4C
001000
ENDCHAR
STARTCHAR e
ENCODING 101
SWIDTH 524 0
DWIDTH 11 0
BBX 10 12 0 -1
BITMAP
01AA00
0BFFD0
2FFFF0
3F4FD0
7D2F40
BD7E00
7DF800
7FF180
2FEBE0
0FFFE0
02FF40
001000
ENDCHAR
STARTCHAR f
ENCODING 102
SWIDTH 395 0
DWIDTH 8 0
BBX 9 16 0 0
BITMAP
005A40
02FF40
07FF40
0FD000
1F8000
6F9500
BFFE00
BFFE00
1F9400
1F4000
1F4000
1F4000
1F4000
1F4000
1F4000
1F4000
ENDCHAR
STARTCHAR g
ENCODING 103
SWIDTH 607 0
DWIDTH 12 0
BBX 11 15 0 -4
BITMAP
01A904
0BFFDC
2FFFFC
3F42FC
7D00FC
BD00BC
7D00BC
7E01FC
3FEBFC
1FFFFC
02FFFC
0011F8
006BF4
00BFD0
00BE40
ENDCHAR
STARTCHAR h
ENCODING 104
SWIDTH 562 0
DWIDTH 11 0
BBX 10 15 1 0
BITMAP
A40000
F80000
F80000
F80000
F9A400
FFFE00
FFFF80
FD1FC0
F807D0
F807D0
F807D0
F807D0
F807D0
F807D0
F807D0
ENDCHAR
STARTCHAR i
ENCODING 105
SWIDTH 235 0
DWIDTH 5 0
BBX 4 15 0 0
BITMAP
2E
7F
7F
14
15
3E
3E
3E
3E
3E
3E
3E
3E
3E
3E
ENDCHAR
STARTCHAR j
ENCODING 106
SWIDTH 237 0
DWIDTH 5 0
BBX 7 19 -3 -4
BITMAP
00B8
01FC
00FC
0050
0054
00F8
00F8
00F8
00F8
00F8
00F8
00F8
00F8
00F8
00F8
02F4
AFE0
FFC0
FE00
ENDCHAR
STARTCHAR k
ENCODING 107
SWIDTH 539 0
DWIDTH 11 0
BBX 10 15 1 0
BITMAP
A40000
F80000
F80000
F80000
F80550
F80FC0
F82F40
F8BD00
F9F800
FFF800
FFFD00
FFBE00
FE2F40
FC1FC0
F80BD0
ENDCHAR
STARTCHAR l
ENCODING 108
SWIDTH 235 0
DWIDTH 5 0
BBX 3 15 1 0
BITMAP
A4
F8
F8
F8
F8
F8
F8
F8
F8
F8
F8
F8
F8
F8
F8
ENDCHAR
STARTCHAR m
ENCODING 109
SWIDTH 762 0
DWIDTH 15 0
BBX 14 11 1 0
BITMAP
4690A400
FFFBFF00
FFFFFF80
FD7F4BD0
F82F07D0
F82F07D0
F82F07D0
F82F07D0
F82F07D0
F82F07D0
F82F07D0
ENDCHAR
STARTCHAR n
ENCODING 110
SWIDTH 562 0
DWIDTH 11 0
BBX 10 11 1 0
BITMAP
41A400
EFFE00
FFFF80
FD1FC0
F807D0
F807D0
F807D0
F807D0
F807D0
F807D0
F807D0
ENDCHAR
STARTCHAR o
ENCODING 111
SWIDTH 579 0
DWIDTH 12 0
BBX 11 12 0 -1
BITMAP
01AA00
0BFFD0
2FFFF4
3F42F8
7D00FC
BD00BC
7D00BC
7E01F8
2FEBF4
0FFFE0
02FF40
001000
ENDCHAR
STARTCHAR p
ENCODING 112
SWIDTH 608 0
DWIDTH 12 0
BBX 11 15 1 -4
BITMAP
41A900
EBFF80
FFFFE0
FE02F4
FC01F8
F800F8
FC00F8
FD02F4
FFABF0
FFFFD0
FAFE40
F81000
F80000
F80000
F80000
ENDCHAR
STARTCHAR q
ENCODING 113
SWIDTH 607 0
DWIDTH 12 0
BBX 11 15 0 -4
BITMAP
01A904
0BFFDC
2FFFFC
3F42FC
7D00FC
BD00BC
7D00BC
7E01FC
2FEBFC
1FFFFC
02FEBC
0010BC
0000BC
0000BC
0000BC
ENDCHAR
STARTCHAR r
ENCODING 114
SWIDTH 414 0
DWIDTH 8 0
BBX 7 11 1 0
BITMAP
4154
EFFC
FFFC
FE54
FC00
F800
F800
F800
F800
F800
F800
ENDCHAR
STARTCHAR s
ENCODING 115
SWIDTH 523 0
DWIDTH 10 0
BBX 10 11 0 0
BITMAP
015550
1FFFD0
3FFFD0
7E5540
7E5500
3FFFD0
0BFFE0
0056F0
6AABF0
7FFFD0
7FFF40
ENDCHAR
STARTCHAR t
ENCODING 116
SWIDTH 437 0
DWIDTH 9 0
BBX 9 15 0 0
BITMAP
1A0000
1F4000
1F4000
1F4000
6F9500
BFFF40
BFFF40
2F5500
1F4000
1F4000
1F4000
1F8000
0FFA40
07FF40
00BF40
ENDCHAR
STARTCHAR u
ENCODING 117
SWIDTH 562 0
DWIDTH 11 0
BBX 10 12 1 -1
BITMAP
540540
F807D0
F807D0
F807D0
F807D0
F807D0
F807D0
FC0BD0
BEAFD0
3FFFD0
0BF890
004000
ENDCHAR
STARTCHAR v
ENCODING 118
SWIDTH 532 0
DWIDTH 11 0
BBX 11 11 0 0
BITMAP
540154
BD02F4
7E03F0
3F07E0
1F4BC0
0F8F80
0BEF40
07FF00
03FE00
02FD00
01FC00
ENDCHAR
STARTCHAR w
ENCODING 119
SWIDTH 756 0
DWIDTH 15 0
BBX 14 12 1 -1
BITMAP
54150540
F82F07D0
F82F07D0
F82F07D0
F82F07D0
F82F07D0
F82F07D0
F83F0BD0
FEBFAFC0
7FFFFF40
1FE6FD00
00001000
ENDCHAR
STARTCHAR x
ENCODING 120
SWIDTH 528 0
DWIDTH 11 0
BBX 11 11 0 0
BITMAP
6901A4
7F07F0
2F8FD0
0BFF40
03FE00
01FC00
02FD00
0BFF40
1F9F80
3F4BE0
BE03F4
ENDCHAR
STARTCHAR y
ENCODING 121
SWIDTH 562 0
DWIDTH 11 0
BBX 10 15 1 -4
BITMAP
540540
F807D0
F807D0
F807D0
F807D0
F807D0
F807D0
F80BD0
BEAFD0
3FFFD0
0BFFC0
005FC0
06BF40
07FE00
07E400
ENDCHAR
STARTCHAR z
ENCODING 122
SWIDTH 481 0
DWIDTH 10 0
BBX 10 11 0 0
BITMAP
555540
BFFF80
BFFF00
15BE00
00FC00
01F400
03E000
0BD000
0FEA80
2FFFD0
7FFFD0
ENDCHAR
STARTCHAR braceleft
ENCODING 123
SWIDTH 466 0
DWIDTH 9 0
BBX 9 18 0 -2
BITMAP
00BF80
02FF80
03FA40
03E000
03E000
03E000
03E000
6BE000
BF8000
BFC000
5BE000
03E000
03E000
03E000
03E000
03FA40
02FF80
00BF80
ENDCHAR
STARTCHAR bar
ENCODING 124
SWIDTH 267 0
DWIDTH 5 0
BBX 3 18 1 -2
BITMAP
BC
BC
BC
BC
BC
BC
BC
BC
BC
BC
BC
BC
BC
BC
BC
BC
BC
BC
ENDCHAR
STARTCHAR braceright
ENCODING 125
SWIDTH 466 0
DWIDTH 9 0
BBX 9 18 0 -2
BITMAP
7F9000
7FF000
6BF400
01F400
01F400
01F400
01F400
01FE40
007FC0
00BFC0
01F940
01F400
01F400
01F400
01F400
6BF400
7FF000
7F9000
ENDCHAR
STARTCHAR asciitilde
ENCODING 126
SWIDTH 451 0
DWIDTH 9 0
BBX 7 4 1 5
BITMAP
7E3C
FFFC
F6F8
5050
ENDCHAR
STARTCHAR nonbreakingspace
ENCODING 160
SWIDTH 279 0
DWIDTH 6 0
BBX 1 1 0 0
BITMAP
00
ENDCHAR
STARTCHAR exclamdown
ENCODING 161
SWIDTH 274 0
DWIDTH 6 0
BBX 4 15 1 -3
BITMAP
68
FD
BD
14
68
7C
7C
BC
BC
BC
BD
BD
BD
FD
A9
ENDCHAR
STARTCHAR cent
ENCODING 162
SWIDTH 462 0
DWIDTH 9 0
BBX 8 14 1 0
BITMAP
03C0
03C0
07D0
2FF8
BEBD
F414
F000
F000
F828
7FFD
1BF4
03C0
03C0
03C0
ENDCHAR
STARTCHAR sterling
ENCODING 163
SWIDTH 681 0
DWIDTH 14 0
BBX 12 14 1 0
BITMAP
01BC00
07FC00
0FF800
1F8000
1F4000
1F4000
FFF400
FFF400
AFA400
1F4015
1F403F
1FEAFE
1FFFFC
1FFFE0
ENDCHAR
STARTCHAR currency
ENCODING 164
SWIDTH 454 0
DWIDTH 9 0
BBX 9 8 0 3
BITMAP
100200
7FFF40
2FBE00
2C0E00
2C0E00
1D1D00
3FFF00
299B00
ENDCHAR
STARTCHAR yen
ENCODING 165
SWIDTH 653 0
DWIDTH 13 0
BBX 11 14 1 0
BITMAP
F800BC
F800BC
F800BC
F800BC
F800BC
FC00FC
BF46F8
2FFFF0
1BFFD0
BFFFF8
BFFFF8
55FD54
00FC00
00FC00
ENDCHAR
STARTCHAR brokenbar
ENCODING 166
SWIDTH 269 0
DWIDTH 5 0
BBX 3 18 1 -2
BITMAP
BC
BC
BC
BC
BC
BC
BC
BC
00
00
BC
BC
BC
BC
BC
BC
BC
BC
ENDCHAR
STARTCHAR section
ENCODING 167
SWIDTH 569 0
DWIDTH 11 0
BBX 10 14 1 0
BITMAP
1BFF80
7FFF80
BEAA40
FD5400
BFFF40
BFFFC0
FD5BD0
FD5BD0
BFFFC0
2FFFD0
055BD0
AAABD0
FFFFC0
FFFE00
ENDCHAR
STARTCHAR dieresis
ENCODING 168
SWIDTH 300 0
DWIDTH 6 0
BBX 6 3 0 10
BITMAP
B5E0
F5F0
1050
ENDCHAR
STARTCHAR copyright
ENCODING 169
SWIDTH 655 0
DWIDTH 13 0
BBX 12 12 1 1
BITMAP
01A900
0BEF80
2D55F0
B6FE38
E7451C
DA001D
DE001D
EB001C
B6FE38
2D65F0
0BEF80
01A900
ENDCHAR
STARTCHAR ordfeminine
ENCODING 170
SWIDTH 451 0
DWIDTH 9 0
BBX 7 11 1 4
BITMAP
0100
2FD8
79F8
B078
B078
B9B8
2FE8
0500
5550
FFF8
5550
ENDCHAR
STARTCHAR guillemotleft
ENCODING 171
SWIDTH 704 0
DWIDTH 14 0
BBX 12 10 1 0
BITMAP
01D01D
07F07F
1FD1FD
3F43F4
FD0FD0
FE0FE0
3F83F8
0BE0BE
02E02E
008008
ENDCHAR
STARTCHAR logicalnot
ENCODING 172
SWIDTH 529 0
DWIDTH 11 0
BBX 9 6 1 3
BITMAP
555500
BFFF40
BFFF40
555F40
001F40
000500
ENDCHAR
STARTCHAR uni00AD
ENCODING 173
SWIDTH 418 0
DWIDTH 8 0
BBX 7 4 1 5
BITMAP
5550
BFF4
BFF4
5550
ENDCHAR
STARTCHAR registered
ENCODING 174
SWIDTH 439 0
DWIDTH 9 0
BBX 8 7 0 7
BITMAP
0BF4
2A99
3267
6227
33E3
2929
0BB4
ENDCHAR
STARTCHAR macron
ENCODING 175
SWIDTH 247 0
DWIDTH 5 0
BBX 5 3 0 10
BITMAP
AA80
FFC0
5540
ENDCHAR
STARTCHAR degree
ENCODING 176
SWIDTH 381 0
DWIDTH 8 0
BBX 7 7 0 7
BITMAP
0680
2FF4
3EB8
7C7C
3EF8
1FF0
0540
ENDCHAR
STARTCHAR plusminus
ENCODING 177
SWIDTH 516 0
DWIDTH 10 0
BBX 9 11 1 0
BITMAP
029000
03E000
57E500
FFFF40
FFFF40
57E500
03E000
014000
AAAA40
FFFF40
FFFF40
ENDCHAR
STARTCHAR twosuperior
ENCODING 178
SWIDTH 355 0
DWIDTH 7 0
BBX 5 7 1 7
BITMAP
BF40
BFC0
1BC0
BF80
F500
FFC0
BF80
ENDCHAR
STARTCHAR threesuperior
ENCODING 179
SWIDTH 354 0
DWIDTH 7 0
BBX 5 7 1 7
BITMAP
FF40
BFC0
2BC0
3FC0
17C0
FFC0
BE40
ENDCHAR
STARTCHAR acute
ENCODING 180
SWIDTH 225 0
DWIDTH 5 0
BBX 4 4 0 10
BITMAP
09
2F
BE
74
ENDCHAR
STARTCHAR mu
ENCODING 181
SWIDTH 571 0
DWIDTH 11 0
BBX 10 16 1 -5
BITMAP
540150
BC03E0
BC03E0
BC03E0
BC03E0
BC03E0
BC03E0
BD07E0
BFAFE0
BFFFE0
BFF960
B80000
B40000
B40000
B40000
500000
ENDCHAR
STARTCHAR paragraph
ENCODING 182
SWIDTH 808 0
DWIDTH 16 0
BBX 15 14 0 0
BITMAP
01BFFFF8
07FFFFF8
1FFFFAF8
2F87E0F8
3F07E0F8
7E07E0F8
3E07E0F8
3F47E0F8
1FEBE0F8
0BFFE0F8
01FFE0F8
0007E0F8
0007E0F8
0007E0F8
ENDCHAR
STARTCHAR periodcentered
ENCODING 183
SWIDTH 261 0
DWIDTH 5 0
BBX 3 4 1 5
BITMAP
64
FC
FC
64
ENDCHAR
STARTCHAR cedilla
ENCODING 184
SWIDTH 208 0
DWIDTH 4 0
BBX 4 6 0 -5
BITMAP
08
1C
2E
5F
FF
14
ENDCHAR
STARTCHAR onesuperior
ENCODING 185
SWIDTH 231 0
DWIDTH 5 0
BBX 3 7 1 7
BITMAP
F4
F4
B4
B4
B4
B4
74
ENDCHAR
STARTCHAR ordmasculine
ENCODING 186
SWIDTH 432 0
DWIDTH 9 0
BBX 7 11 1 4
BITMAP
0100
2FD0
79F0
B074
B074
B9B0
2FD0
0500
5550
FFF8
5550
ENDCHAR
STARTCHAR guillemotright
ENCODING 187
SWIDTH 703 0
DWIDTH 14 0
BBX 12 10 1 0
BITMAP
740740
FD0FD0
7F47F4
1FD1FD
07F07F
07F07F
2FC2FC
BF0BF0
B80B80
200200
ENDCHAR
STARTCHAR onequarter
ENCODING 188
SWIDTH 648 0
DWIDTH 13 0
BBX 12 14 1 0
BITMAP
BC03D0
BC0780
3C0F40
3C2E00
3C3C00
3CB800
2DF000
02DB50
07CF78
0B4F78
1E0E78
3D1FFD
781AFD
F00078
ENDCHAR
STARTCHAR onehalf
ENCODING 189
SWIDTH 637 0
DWIDTH 13 0
BBX 11 14 1 0
BITMAP
BC03D0
BC0780
3C0F40
3C2E00
3C3C00
3CB800
2DF000
02DBE0
07CBF8
0B417C
1E0BF8
3D0F90
780FF8
F00FFC
ENDCHAR
STARTCHAR threequarters
ENCODING 190
SWIDTH 708 0
DWIDTH 14 0
BBX 13 14 1 0
BITMAP
FE40B400
FF81F000
6BC2D000
7F878000
57CB4000
FF9E0000
FE3D0000
0079D500
00F2DF00
02E2DF00
03C3DF00
0B43FF40
1F02AF40
2D000F00
ENDCHAR
STARTCHAR questiondown
ENCODING 191
SWIDTH 602 0
DWIDTH 12 0
BBX 12 15 0 -3
BITMAP
000640
000FC0
000FC0
000100
000A80
000FC0
01AF80
0BFF00
2FF900
3F4000
7E0000
7E0000
2FFFFD
1FFFFD
02AAA9
ENDCHAR
STARTCHAR Agrave
ENCODING 192
SWIDTH 673 0
DWIDTH 13 0
BBX 12 19 1 0
BITMAP
024000
07D000
07F400
007000
000000
02FE40
0FFFE0
3FFFF4
7F02FC
BD00BD
FC007D
FC007D
FC007D
FEAABD
FFFFFD
FFFFFD
FD55BD
FC007D
FC007D
ENDCHAR
STARTCHAR Aacute
ENCODING 193
SWIDTH 673 0
DWIDTH 13 0
BBX 12 19 1 0
BITMAP
000200
000F80
003F40
002800
000000
02FE40
0FFFE0
3FFFF4
7F02FC
BD00BD
FC007D
FC007D
FC007D
FEAABD
FFFFFD
FFFFFD
FD55BD
FC007D
FC007D
ENDCHAR
STARTCHAR Acircumflex
ENCODING 194
SWIDTH 673 0
DWIDTH 13 0
BBX 12 19 1 0
BITMAP
002400
00BD00
02EF40
018600
000000
02FE40
0FFFE0
3FFFF4
7F02FC
BD00BD
FC007D
FC007D
FC007D
FEAABD
FFFFFD
FFFFFD
FD55BD
FC007D
FC007D
ENDCHAR
STARTCHAR Atilde
ENCODING 195
SWIDTH 673 0
DWIDTH 13 0
BBX 12 18 1 0
BITMAP
029280
07FBC0
07AF80
024500
02FE40
0FFFE0
3FFFF4
7F02FC
BD00BD
FC007D
FC007D
FC007D
FEAABD
FFFFFD
FFFFFD
FD55BD
FC007D
FC007D
ENDCHAR
STARTCHAR Adieresis
ENCODING 196
SWIDTH 673 0
DWIDTH 13 0
BBX 12 17 1 0
BITMAP
03C740
07CB80
014100
02FE40
0FFFE0
3FFFF4
7F02FC
BD00BD
FC007D
FC007D
FC007D
FEAABD
FFFFFD
FFFFFD
FD55BD
FC007D
FC007D
ENDCHAR
STARTCHAR Aring
ENCODING 197
SWIDTH 673 0
DWIDTH 13 0
BBX 12 17 1 0
BITMAP
00BD00
00DA00
00ED00
02FE40
0FFFD0
3FFFF4
7F02FC
BD00BD
FC007D
FC007D
FC007D
FEAABD
FFFFFD
FFFFFD
FD55BD
FC007D
FC007D
ENDCHAR
STARTCHAR AE
ENCODING 198
SWIDTH 988 0
DWIDTH 20 0
BBX 18 14 1 0
BITMAP
02FFFFFFF0
0FFFFFFFF0
3FFAFFAAA0
7F007D0000
BD007D0000
FC007E5500
FC007FFF00
FC007FFF00
FEAABE5500
FFFFFD0000
FFFFFD0000
FD55BFAAA0
FC007FFFF0
FC007FFFF0
ENDCHAR
STARTCHAR Ccedilla
ENCODING 199
SWIDTH 640 0
DWIDTH 13 0
BBX 13 20 0 -5
BITMAP
00010000
006FF900
02FFFF40
0BFABF00
1FD00900
3F400000
7E000000
7D000000
7D000000
7E000000
3F400000
2FD00500
0FFABE00
03FFFF40
007FF900
000D4000
001F4000
001B8000
007F4000
00150000
ENDCHAR
STARTCHAR Egrave
ENCODING 200
SWIDTH 578 0
DWIDTH 12 0
BBX 10 19 1 0
BITMAP
020000
0BC000
07F000
00A000
000000
BFFFF0
BFFFF0
BEAAA0
BC0000
BC0000
BD5500
BFFE00
BFFE00
BD5500
BC0000
BC0000
BEAAA0
BFFFF0
BFFFF0
ENDCHAR
STARTCHAR Eacute
ENCODING 201
SWIDTH 578 0
DWIDTH 12 0
BBX 10 19 1 0
BITMAP
000900
002F40
00BE00
007400
000000
BFFFF0
BFFFF0
BEAAA0
BC0000
BC0000
BD5500
BFFE00
BFFE00
BD5500
BC0000
BC0000
BEAAA0
BFFFF0
BFFFF0
ENDCHAR
STARTCHAR Ecircumflex
ENCODING 202
SWIDTH 578 0
DWIDTH 12 0
BBX 10 19 1 0
BITMAP
006000
01F800
07FE00
024800
000000
BFFFF0
BFFFF0
BEAAA0
BC0000
BC0000
BD5500
BFFE00
BFFE00
BD5500
BC0000
BC0000
BEAAA0
BFFFF0
BFFFF0
ENDCHAR
STARTCHAR Edieresis
ENCODING 203
SWIDTH 578 0
DWIDTH 12 0
BBX 10 17 1 0
BITMAP
0B4E00
0B5F00
010500
BFFFF0
BFFFF0
BEAAA0
BC0000
BC0000
BD5500
BFFE00
BFFE00
BD5500
BC0000
BC0000
BEAAA0
BFFFF0
BFFFF0
ENDCHAR
STARTCHAR Igrave
ENCODING 204
SWIDTH 270 0
DWIDTH 5 0
BBX 5 19 -1 0
BITMAP
1400
7D00
6F40
0740
0000
0BC0
0BC0
0BC0
0BC0
0BC0
0BC0
0BC0
0BC0
0BC0
0BC0
0BC0
0BC0
0BC0
0BC0
ENDCHAR
STARTCHAR Iacute
ENCODING 205
SWIDTH 270 0
DWIDTH 5 0
BBX 5 19 1 0
BITMAP
0200
1F80
3F40
2800
0000
BC00
BC00
BC00
BC00
BC00
BC00
BC00
BC00
BC00
BC00
BC00
BC00
BC00
BC00
ENDCHAR
STARTCHAR Icircumflex
ENCODING 206
SWIDTH 270 0
DWIDTH 5 0
BBX 5 19 0 0
BITMAP
0900
2F40
BBC0
6180
0000
2F00
2F00
2F00
2F00
2F00
2F00
2F00
2F00
2F00
2F00
2F00
2F00
2F00
2F00
ENDCHAR
STARTCHAR Idieresis
ENCODING 207
SWIDTH 270 0
DWIDTH 5 0
BBX 7 17 -1 0
BITMAP
3C74
7CB8
1410
0BC0
0BC0
0BC0
0BC0
0BC0
0BC0
0BC0
0BC0
0BC0
0BC0
0BC0
0BC0
0BC0
0BC0
ENDCHAR
STARTCHAR Eth
ENCODING 208
SWIDTH 672 0
DWIDTH 13 0
BBX 13 14 0 0
BITMAP
1FFE4000
1FFFF400
1FEFFD00
1F81BF00
1F802F40
6F901F80
FFF00FC0
FFF00FC0
5F901F80
1F802F40
1F80BF00
1FEFFD00
1FFFF400
1FFE4000
ENDCHAR
STARTCHAR Ntilde
ENCODING 209
SWIDTH 689 0
DWIDTH 14 0
BBX 12 18 1 0
BITMAP
01A280
07FBC0
07AF80
024500
BE007E
BF407E
BF807E
BFD07E
BFF07E
BEF87E
BCFC7E
BC7E7E
BC2FBE
BC0FFE
BC0BFE
BC03FE
BC01FE
BC00BE
ENDCHAR
STARTCHAR Ograve
ENCODING 210
SWIDTH 777 0
DWIDTH 16 0
BBX 15 20 0 -1
BITMAP
00140000
007D0000
006F4000
00074000
00010000
006FF800
02FFFF40
0BFABFD0
1FD00BF0
3F4002F4
7E0000F8
7D0000BC
7D0000BC
7E0000FC
3F4002F8
2FD00BF0
0BFABFD0
02FFFF40
007FF900
00014000
ENDCHAR
STARTCHAR Oacute
ENCODING 211
SWIDTH 777 0
DWIDTH 16 0
BBX 15 20 0 -1
BITMAP
00002000
0000B800
0003F800
00029000
00010000
006FF800
02FFFF40
0BFABFD0
1FD00BF0
3F4002F4
7E0000F8
7D0000BC
7D0000BC
7E0000FC
3F4002F8
2FD00BF0
0BFABFD0
02FFFF40
007FF900
00014000
ENDCHAR
STARTCHAR Ocircumflex
ENCODING 212
SWIDTH 777 0
DWIDTH 16 0
BBX 15 20 0 -1
BITMAP
00024000
000BD000
002EF400
00086000
00000000
006FF800
02FFFF40
0BFABFD0
1FD00BF0
3F4002F4
7E0000F8
7D0000BC
7D0000BC
7E0000FC
3F4002F8
2FD00BF0
0BFABFD0
02FFFF40
007FF900
00014000
ENDCHAR
STARTCHAR Otilde
ENCODING 213
SWIDTH 777 0
DWIDTH 16 0
BBX 15 19 0 -1
BITMAP
00292800
007FBC00
007AF800
00245000
006FF800
02FFFF40
0BFABFD0
1FD00BF0
3F4002F4
7E0000F8
7D0000BC
7D0000BC
7E0000FC
3F4002F8
2FD00BF0
0BFABFD0
02FFFF40
007FF900
00014000
ENDCHAR
STARTCHAR Odieresis
ENCODING 214
SWIDTH 777 0
DWIDTH 16 0
BBX 15 18 0 -1
BITMAP
003C7400
003CB800
00145000
006FF800
02FFFF40
0BFABFD0
1FD00BF0
3F4002F4
7E0000F8
7D0000BC
7D0000BC
7E0000FC
3F4002F8
2FD00BF0
0BFABFD0
02FFFF40
007FF900
00014000
ENDCHAR
STARTCHAR multiply
ENCODING 215
SWIDTH 479 0
DWIDTH 10 0
BBX 8 8 1 3
BITMAP
2424
BDBD
BFFC
2FF0
2FF4
BFFD
7CBC
1010
ENDCHAR
STARTCHAR Oslash
ENCODING 216
SWIDTH 777 0
DWIDTH 16 0
BBX 15 15 0 -1
BITMAP
006FFAE0
02FFFFD0
0BFABFD0
1FD03FF0
3F40BEF8
7E01F4F8
7D07D0BC
7D0F80BC
7E2F00FC
3FBD02F8
2FF80BF0
0FFABFD0
0BFFFF40
1FBFF900
00014000
ENDCHAR
STARTCHAR Ugrave
ENCODING 217
SWIDTH 673 0
DWIDTH 13 0
BBX 12 19 1 0
BITMAP
018000
07E000
02F800
007400
000000
FC007D
FC007D
FC007D
FC007D
FC007D
FC007D
FC007D
FC007D
FC007D
BD00BD
7F02FC
3FFFF4
0FFFE0
02FE40
ENDCHAR
STARTCHAR Uacute
ENCODING 218
SWIDTH 673 0
DWIDTH 13 0
BBX 12 19 1 0
BITMAP
000200
000B80
003F80
002900
000000
FC007D
FC007D
FC007D
FC007D
FC007D
FC007D
FC007D
FC007D
FC007D
BD00BD
7F02FC
3FFFF4
0FFFE0
02FE40
ENDCHAR
STARTCHAR Ucircumflex
ENCODING 219
SWIDTH 673 0
DWIDTH 13 0
BBX 12 19 1 0
BITMAP
002400
00BD00
02EF40
018600
000000
FC007D
FC007D
FC007D
FC007D
FC007D
FC007D
FC007D
FC007D
FC007D
BD00BD
7F02FC
3FFFF4
0FFFE0
02FE40
ENDCHAR
STARTCHAR Udieresis
ENCODING 220
SWIDTH 673 0
DWIDTH 13 0
BBX 12 17 1 0
BITMAP
03C740
07CB80
014100
FC007D
FC007D
FC007D
FC007D
FC007D
FC007D
FC007D
FC007D
FC007D
BD00BD
7F02FC
3FFFF4
0FFFE0
02FE40
ENDCHAR
STARTCHAR Yacute
ENCODING 221
SWIDTH 620 0
DWIDTH 12 0
BBX 12 19 0 0
BITMAP
000140
000BD0
002F90
001D00
000000
7D003E
7D003E
7D003E
7D003E
7D003E
7E007E
2F81FD
1FFFF8
07FFE0
00BE40
007E00
007E00
007E00
007E00
ENDCHAR
STARTCHAR Thorn
ENCODING 222
SWIDTH 637 0
DWIDTH 13 0
BBX 12 16 1 -1
BITMAP
680000
BC0000
BEA900
BFFFD0
BFFFF4
BD56FC
BC00BD
BC007D
BC007D
BC00BD
BD56FC
BFFFF4
BFFFD0
BEA900
BC0000
680000
ENDCHAR
STARTCHAR germandbls
ENCODING 223
SWIDTH 813 0
DWIDTH 16 0
BBX 16 16 0 0
BITMAP
005AA400
02FFFE00
07FFFF40
0FD01F80
1F800BC0
6F406F80
BF47FF40
BF4FFD00
1F5F9000
1F5F9550
1F4BFFFD
1F42FFFF
1F40156F
1F46AABF
1F4BFFFE
1F4BFFF4
ENDCHAR
STARTCHAR agrave
ENCODING 224
SWIDTH 607 0
DWIDTH 12 0
BBX 11 17 0 -1
BITMAP
014000
07E000
02F800
007400
000000
01A904
0BFFDC
2FFFFC
3F42FC
7D00FC
BD00BC
7D00BC
7E01FC
3FEBFC
1FFFEC
06FE48
001000
ENDCHAR
STARTCHAR aacute
ENCODING 225
SWIDTH 607 0
DWIDTH 12 0
BBX 11 17 0 -1
BITMAP
000200
000F80
003F40
002800
000000
01A904
0BFFDC
2FFFFC
3F42FC
7D00FC
BD00BC
7D00BC
7E01FC
3FEBFC
1FFFEC
06FE48
001000
ENDCHAR
STARTCHAR acircumflex
ENCODING 226
SWIDTH 607 0
DWIDTH 12 0
BBX 11 16 0 -1
BITMAP
002400
00BD00
02EF40
008600
01A904
0BFFDC
2FFFFC
3F42FC
7D00FC
BD00BC
7D00BC
7E01FC
3FEBFC
1FFFEC
06FE48
001000
ENDCHAR
STARTCHAR atilde
ENCODING 227
SWIDTH 607 0
DWIDTH 12 0
BBX 11 16 0 -1
BITMAP
01A280
07FBC0
07AF80
024500
01A904
0BFFDC
2FFFFC
3F42FC
7D00FC
BD00BC
7D00BC
7E01FC
3FEBFC
1FFFEC
06FE48
001000
ENDCHAR
STARTCHAR adieresis
ENCODING 228
SWIDTH 607 0
DWIDTH 12 0
BBX 11 15 0 -1
BITMAP
03C780
03DB80
014100
01A904
0BFFDC
2FFFFC
3F42FC
7D00FC
BD00BC
7D00BC
7E01FC
3FEBFC
1FFFEC
06FE48
001000
ENDCHAR
STARTCHAR aring
ENCODING 229
SWIDTH 607 0
DWIDTH 12 0
BBX 11 16 0 -1
BITMAP
00BD00
00DA00
00EE00
006800
01A904
0BFFDC
2FFFFC
3F42FC
7D00FC
BD00BC
7D00BC
7E01FC
3FEBFC
1FFFEC
06FE48
001000
ENDCHAR
STARTCHAR ae
ENCODING 230
SWIDTH 976 0
DWIDTH 20 0
BBX 19 12 0 -1
BITMAP
01A9046A80
0BFFDEFFF4
2FFFFFFFFC
3F42FFD2F4
7D00FF4BD0
BD00BF5F80
7D00BF7E00
7E01FFFC60
3FEBFFFAF8
1FFFEFFFF8
06FE49BFD0
0010000400
ENDCHAR
STARTCHAR ccedilla
ENCODING 231
SWIDTH 521 0
DWIDTH 10 0
BBX 10 16 0 -5
BITMAP
01AA00
0BFFD0
2FFFF0
3F42D0
7D0040
BD0000
BD0000
7E0180
2FEBE0
0FFFE0
02FF40
007400
007C00
016D00
02FC00
005000
ENDCHAR
STARTCHAR egrave
ENCODING 232
SWIDTH 524 0
DWIDTH 11 0
BBX 10 17 0 -1
BITMAP
024000
07D000
07F400
00B000
000000
01AA00
0BFFD0
2FFFF0
3F4FD0
7D2F40
BD7E00
7DF800
7FF180
2FEBE0
0FFFE0
02FF40
001000
ENDCHAR
STARTCHAR eacute
ENCODING 233
SWIDTH 524 0
DWIDTH 11 0
BBX 10 17 0 -1
BITMAP
000200
001F80
003F40
002800
000000
01AA00
0BFFD0
2FFFF0
3F4FD0
7D2F40
BD7E00
7DF800
7FF180
2FEBE0
0FFFE0
02FF40
001000
ENDCHAR
STARTCHAR ecircumflex
ENCODING 234
SWIDTH 524 0
DWIDTH 11 0
BBX 10 17 0 -1
BITMAP
006000
01F800
03EE00
024900
000000
01AA00
0BFFD0
2FFFF0
3F4FD0
7D2F40
BD7E00
7DF800
7FF180
2FEBE0
0FFFE0
02FF40
001000
ENDCHAR
STARTCHAR edieresis
ENCODING 235
SWIDTH 524 0
DWIDTH 11 0
BBX 10 15 0 -1
BITMAP
078B00
0B8F40
010500
01AA00
0BFFD0
2FFFF0
3F4FD0
7D2F40
BD7E00
7DF800
7FF180
2FEBE0
0FFFE0
02FF40
001000
ENDCHAR
STARTCHAR igrave
ENCODING 236
SWIDTH 235 0
DWIDTH 5 0
BBX 5 15 -1 0
BITMAP
2400
BD00
7F40
0A00
0540
0F80
0F80
0F80
0F80
0F80
0F80
0F80
0F80
0F80
0F80
ENDCHAR
STARTCHAR iacute
ENCODING 237
SWIDTH 235 0
DWIDTH 5 0
BBX 5 15 1 0
BITMAP
0600
1F40
7E40
7400
5400
F800
F800
F800
F800
F800
F800
F800
F800
F800
F800
ENDCHAR
STARTCHAR icircumflex
ENCODING 238
SWIDTH 235 0
DWIDTH 5 0
BBX 5 15 0 0
BITMAP
1800
7E00
FB80
5240
1500
3E00
3E00
3E00
3E00
3E00
3E00
3E00
3E00
3E00
3E00
ENDCHAR
STARTCHAR idieresis
ENCODING 239
SWIDTH 235 0
DWIDTH 5 0
BBX 7 14 -1 0
BITMAP
78B0
B8F4
1050
0540
0F80
0F80
0F80
0F80
0F80
0F80
0F80
0F80
0F80
0F80
ENDCHAR
STARTCHAR eth
ENCODING 240
SWIDTH 581 0
DWIDTH 12 0
BBX 11 17 0 -1
BITMAP
005400
00BE00
07FFF8
07FFF8
015BE4
01ABE0
0BFFF0
2FFFF8
3F42F8
7D00FC
BD00BC
7D00BC
7E01F8
2FEBF4
0FFFE0
02FF40
001000
ENDCHAR
STARTCHAR ntilde
ENCODING 241
SWIDTH 562 0
DWIDTH 11 0
BBX 10 15 1 0
BITMAP
0A4A00
1FEF00
1EBE00
191400
41A400
EFFE00
FFFF80
FD1FC0
F807D0
F807D0
F807D0
F807D0
F807D0
F807D0
F807D0
ENDCHAR
STARTCHAR ograve
ENCODING 242
SWIDTH 579 0
DWIDTH 12 0
BBX 11 17 0 -1
BITMAP
014000
07E000
06F800
007400
000000
01AA00
0BFFD0
2FFFF4
3F42F8
7D00FC
BD00BC
7D00BC
7E01F8
2FEBF4
0FFFE0
02FF40
001000
ENDCHAR
STARTCHAR oacute
ENCODING 243
SWIDTH 579 0
DWIDTH 12 0
BBX 11 17 0 -1
BITMAP
000200
000F80
003F40
002800
000000
01AA00
0BFFD0
2FFFF4
3F42F8
7D00FC
BD00BC
7D00BC
7E01F8
2FEBF4
0FFFE0
02FF40
001000
ENDCHAR
STARTCHAR ocircumflex
ENCODING 244
SWIDTH 579 0
DWIDTH 12 0
BBX 11 16 0 -1
BITMAP
002400
00BD00
02EF40
008600
01AA00
0BFFD0
2FFFF4
3F42F8
7D00FC
BD00BC
7D00BC
7E01F8
2FEBF4
0FFFE0
02FF40
001000
ENDCHAR
STARTCHAR otilde
ENCODING 245
SWIDTH 579 0
DWIDTH 12 0
BBX 11 16 0 -1
BITMAP
029280
07FBC0
07AF80
024500
01AA00
0BFFD0
2FFFF4
3F42F8
7D00FC
BD00BC
7D00BC
7E01F8
2FEBF4
0FFFE0
02FF40
001000
ENDCHAR
STARTCHAR odieresis
ENCODING 246
SWIDTH 579 0
DWIDTH 12 0
BBX 11 15 0 -1
BITMAP
03C740
03DB80
014100
01AA00
0BFFD0
2FFFF4
3F42F8
7D00FC
BD00BC
7D00BC
7E01F8
2FEBF4
0FFFE0
02FF40
001000
ENDCHAR
STARTCHAR divide
ENCODING 247
SWIDTH 494 0
DWIDTH 10 0
BBX 8 10 1 2
BITMAP
0280
07D0
0280
5555
FFFF
FFFF
5555
07C0
07D0
0280
ENDCHAR
STARTCHAR oslash
ENCODING 248
SWIDTH 579 0
DWIDTH 12 0
BBX 11 11 0 0
BITMAP
01AA68
0BFFF4
2FFFF4
3F4BF8
7D2FFC
BD7DBC
7DF8BC
7FE1F8
2FEBF4
1FFFE0
3FFF40
ENDCHAR
STARTCHAR ugrave
ENCODING 249
SWIDTH 562 0
DWIDTH 11 0
BBX 10 16 1 -1
BITMAP
090000
1F4000
1FD000
02C000
540540
F807D0
F807D0
F807D0
F807D0
F807D0
F807D0
FC0BD0
BEAFD0
3FFFD0
0BF890
004000
ENDCHAR
STARTCHAR uacute
ENCODING 250
SWIDTH 562 0
DWIDTH 11 0
BBX 10 16 1 -1
BITMAP
001800
007E00
01FD00
00E000
540540
F807D0
F807D0
F807D0
F807D0
F807D0
F807D0
FC0BD0
BEAFD0
3FFFD0
0BF890
004000
ENDCHAR
STARTCHAR ucircumflex
ENCODING 251
SWIDTH 562 0
DWIDTH 11 0
BBX 10 16 1 -1
BITMAP
008000
03F000
0FBC00
061400
540540
F807D0
F807D0
F807D0
F807D0
F807D0
F807D0
FC0BD0
BEAFD0
3FFFD0
0BF890
004000
ENDCHAR
STARTCHAR udieresis
ENCODING 252
SWIDTH 562 0
DWIDTH 11 0
BBX 10 15 1 -1
BITMAP
1E2D00
1F2D00
050400
540540
F807D0
F807D0
F807D0
F807D0
F807D0
F807D0
FC0BD0
BEAFD0
3FFFD0
0BF890
004000
ENDCHAR
STARTCHAR yacute
ENCODING 253
SWIDTH 562 0
DWIDTH 11 0
BBX 10 19 1 -4
BITMAP
001800
007E00
01FD00
00E000
540540
F807D0
F807D0
F807D0
F807D0
F807D0
F807D0
F80BD0
BEAFD0
3FFFD0
0BFFC0
005FC0
06BF40
07FE00
07E400
ENDCHAR
STARTCHAR thorn
ENCODING 254
SWIDTH 608 0
DWIDTH 12 0
BBX 11 19 1 -4
BITMAP
A80000
FC0000
FC0000
FC0000
FDA900
FFFF80
FFFFE0
FE02F4
FC01F8
F800F8
FC00F8
FD02F4
FFABF0
FFFFD0
FAFE40
F81000
F80000
F80000
F80000
ENDCHAR
STARTCHAR ydieresis
ENCODING 255
SWIDTH 562 0
DWIDTH 11 0
BBX 10 18 1 -4
BITMAP
1E2D00
1F2D00
050400
540540
F807D0
F807D0
F807D0
F807D0
F807D0
F807D0
F80BD0
BEAFD0
3FFFD0
0BFFC0
005FC0
06BF40
07FE00
07E400
ENDCHAR
STARTCHAR Amacron
ENCODING 256
SWIDTH 673 0
DWIDTH 13 0
BBX 12 17 1 0
BITMAP
02AA00
02FF40
015500
02FE40
0FFFE0
3FFFF4
7F02FC
BD00BD
FC007D
FC007D
FC007D
FEAABD
FFFFFD
FFFFFD
FD55BD
FC007D
FC007D
ENDCHAR
STARTCHAR amacron
ENCODING 257
SWIDTH 607 0
DWIDTH 12 0
BBX 11 15 0 -1
BITMAP
02AA00
02FF00
015500
01A904
0BFFDC
2FFFFC
3F42FC
7D00FC
BD00BC
7D00BC
7E01FC
3FEBFC
1FFFEC
06FE48
001000
ENDCHAR
STARTCHAR Abreve
ENCODING 258
SWIDTH 673 0
DWIDTH 13 0
BBX 12 18 1 0
BITMAP
018900
02EE00
00FD00
001000
02FE40
0FFFE0
3FFFF4
7F02FC
BD00BD
FC007D
FC007D
FC007D
FEAABD
FFFFFD
FFFFFD
FD55BD
FC007D
FC007D
ENDCHAR
STARTCHAR abreve
ENCODING 259
SWIDTH 607 0
DWIDTH 12 0
BBX 11 16 0 -1
BITMAP
018900
02EE00
00FD00
001000
01A904
0BFFDC
2FFFFC
3F42FC
7D00FC
BD00BC
7D00BC
7E01FC
3FEBFC
1FFFEC
06FE48
001000
ENDCHAR
STARTCHAR Aogonek
ENCODING 260
SWIDTH 673 0
DWIDTH 13 0
BBX 12 18 1 -4
BITMAP
02FE40
0FFFE0
3FFFF4
7F02FC
BD00BD
FC007D
FC007D
FC007D
FEAABD
FFFFFD
FFFFFD
FD55BD
FC007D
FC007D
0000B0
0000F4
0000FE
000014
ENDCHAR
STARTCHAR aogonek
ENCODING 261
SWIDTH 607 0
DWIDTH 12 0
BBX 13 15 0 -4
BITMAP
01A90400
0BFFDC00
2FFFFC00
3F42FC00
7D00FC00
BD00BC00
7D00BC00
7E01FC00
3FEBFC00
1FFFEC00
06FE4C00
00103800
00007A00
00007F40
00001900
ENDCHAR
STARTCHAR Cacute
ENCODING 262
SWIDTH 640 0
DWIDTH 13 0
BBX 13 20 0 -1
BITMAP
00006000
0001F400
0007F400
00034000
00010000
006FF900
02FFFF40
0BFABF00
1FD00900
3F400000
7E000000
7D000000
7D000000
7E000000
3F400000
2FD00500
0BFABE00
02FFFF40
007FF900
00014000
ENDCHAR
STARTCHAR cacute
ENCODING 263
SWIDTH 521 0
DWIDTH 10 0
BBX 10 17 0 -1
BITMAP
000600
001F40
007F40
003800
000000
01AA00
0BFFD0
2FFFF0
3F42D0
7D0040
BD0000
BD0000
7E0180
2FEBE0
1FFFE0
02FF40
001000
ENDCHAR
STARTCHAR Ccircumflex
ENCODING 264
SWIDTH 640 0
DWIDTH 13 0
BBX 13 20 0 -1
BITMAP
00060000
001F8000
003EE000
00149000
00010000
006FF900
02FFFF40
0BFABF00
1FD00900
3F400000
7E000000
7D000000
7D000000
7E000000
3F400000
2FD00500
0BFABE00
02FFFF40
007FF900
00014000
ENDCHAR
STARTCHAR ccircumflex
ENCODING 265
SWIDTH 521 0
DWIDTH 10 0
BBX 10 16 0 -1
BITMAP
002400
00BD00
02EF00
018600
01AA00
0BFFD0
2FFFF0
3F42D0
7D0040
BD0000
BD0000
7E0180
2FEBE0
1FFFE0
02FF40
001000
ENDCHAR
STARTCHAR Cdotaccent
ENCODING 266
SWIDTH 640 0
DWIDTH 13 0
BBX 13 19 0 -1
BITMAP
00010000
00078000
00078000
00014000
006FF900
02FFFF40
0BFABF00
1FD00900
3F400000
7E000000
7D000000
7D000000
7E000000
3F400000
2FD00500
0BFABE00
02FFFF40
007FF900
00014000
ENDCHAR
STARTCHAR cdotaccent
ENCODING 267
SWIDTH 521 0
DWIDTH 10 0
BBX 10 15 0 -1
BITMAP
007C00
007C00
001000
01AA00
0BFFD0
2FFFF0
3F42D0
7D0040
BD0000
BD0000
7E0180
2FEBE0
1FFFE0
02FF40
001000
ENDCHAR
STARTCHAR Ccaron
ENCODING 268
SWIDTH 640 0
DWIDTH 13 0
BBX 13 20 0 -1
BITMAP
00186000
002FF000
000BC000
00010000
00010000
006FF900
02FFFF40
0BFABF00
1FD00900
3F400000
7E000000
7D000000
7D000000
7E000000
3F400000
2FD00500
0BFABE00
02FFFF40
007FF900
00014000
ENDCHAR
STARTCHAR ccaron
ENCODING 269
SWIDTH 521 0
DWIDTH 10 0
BBX 10 16 0 -1
BITMAP
018600
02FF40
00BD00
001400
01AA00
0BFFD0
2FFFF0
3F42D0
7D0040
BD0000
BD0000
7E0180
2FEBE0
1FFFE0
02FF40
001000
ENDCHAR
STARTCHAR Dcaron
ENCODING 270
SWIDTH 653 0
DWIDTH 13 0
BBX 12 18 1 0
BITMAP
028A00
02FF00
00B800
002000
BFF900
BFFF80
BEBFE0
BC07F8
BC01FC
BC00BD
BC007D
BC007D
BC00BD
BC01FC
BC07F8
BEBFE0
BFFF80
BFF900
ENDCHAR
STARTCHAR dcaron
ENCODING 271
SWIDTH 740 0
DWIDTH 15 0
BBX 15 16 0 -1
BITMAP
00006800
0000BCB4
0000BCB8
0000BC78
01A9BC34
0BFFFC00
2FFFFC00
3F42FC00
7D00FC00
BD00BC00
7D00BC00
7E01FC00
2FEBFC00
0FFFEC00
02FE4C00
00100000
ENDCHAR
STARTCHAR Dcroat
ENCODING 272
SWIDTH 672 0
DWIDTH 13 0
BBX 13 14 0 0
BITMAP
1FFE4000
1FFFF400
1FEFFD00
1F81BF00
1F802F40
6F901F80
FFF00FC0
FFF00FC0
5F901F80
1F802F40
1F80BF00
1FEFFD00
1FFFF400
1FFE4000
ENDCHAR
STARTCHAR dcroat
ENCODING 273
SWIDTH 606 0
DWIDTH 12 0
BBX 12 16 0 -1
BITMAP
000068
0002FF
0002FF
0001FE
01A9BC
0BFFFC
2FFFFC
3F42FC
7D00FC
BD00BC
7D00BC
7E01FC
2FEBFC
0FFFEC
02FE4C
001000
ENDCHAR
STARTCHAR Emacron
ENCODING 274
SWIDTH 578 0
DWIDTH 12 0
BBX 10 17 1 0
BITMAP
02AA00
03FE00
015500
BFFFF0
BFFFF0
BEAAA0
BC0000
BC0000
BD5500
BFFE00
BFFE00
BD5500
BC0000
BC0000
BEAAA0
BFFFF0
BFFFF0
ENDCHAR
STARTCHAR emacron
ENCODING 275
SWIDTH 524 0
DWIDTH 11 0
BBX 10 15 0 -1
BITMAP
02AA00
02FF00
015500
01AA00
0BFFD0
2FFFF0
3F4FD0
7D2F40
BD7E00
7DF800
7FF180
2FEBE0
0FFFE0
02FF40
001000
ENDCHAR
STARTCHAR Ebreve
ENCODING 276
SWIDTH 578 0
DWIDTH 12 0
BBX 10 18 1 0
BITMAP
025800
03ED00
02F800
001000
BFFFF0
BFFFF0
BEAAA0
BC0000
BC0000
BD5500
BFFE00
BFFE00
BD5500
BC0000
BC0000
BEAAA0
BFFFF0
BFFFF0
ENDCHAR
STARTCHAR ebreve
ENCODING 277
SWIDTH 524 0
DWIDTH 11 0
BBX 10 16 0 -1
BITMAP
018900
02EE00
01FD00
001000
01AA00
0BFFD0
2FFFF0
3F4FD0
7D2F40
BD7E00
7DF800
7FF180
2FEBE0
0FFFE0
02FF40
001000
ENDCHAR
STARTCHAR Edotaccent
ENCODING 278
SWIDTH 578 0
DWIDTH 12 0
BBX 10 17 1 0
BITMAP
00F400
00F400
001000
BFFFF0
BFFFF0
BEAAA0
BC0000
BC0000
BD5500
BFFE00
BFFE00
BD5500
BC0000
BC0000
BEAAA0
BFFFF0
BFFFF0
ENDCHAR
STARTCHAR edotaccent
ENCODING 279
SWIDTH 524 0
DWIDTH 11 0
BBX 10 16 0 -1
BITMAP
001000
007800
007800
001000
01AA00
0BFFD0
2FFFF0
3F4FD0
7D2F40
BD7E00
7DF800
7FF180
2FEBE0
0FFFE0
02FF40
001000
ENDCHAR
STARTCHAR Eogonek
ENCODING 280
SWIDTH 578 0
DWIDTH 12 0
BBX 10 18 1 -4
BITMAP
BFFFF0
BFFFF0
BEAAA0
BC0000
BC0000
BD5500
BFFE00
BFFE00
BD5500
BC0000
BC0000
BEAAA0
BFFFF0
BFFFF0
000A00
001E80
000FE0
000640
ENDCHAR
STARTCHAR eogonek
ENCODING 281
SWIDTH 524 0
DWIDTH 11 0
BBX 10 15 0 -4
BITMAP
01AA00
0BFFD0
2FFFF0
3F4FD0
7D2F40
BD7E00
7DF800
7FF180
2FEBE0
0FFFE0
02FF40
001E00
002D40
001FD0
000640
ENDCHAR
STARTCHAR Ecaron
ENCODING 282
SWIDTH 578 0
DWIDTH 12 0
BBX 10 18 1 0
BITMAP
024900
07FE00
01F800
001000
BFFFF0
BFFFF0
BEAAA0
BC0000
BC0000
BD5500
BFFE00
BFFE00
BD5500
BC0000
BC0000
BEAAA0
BFFFF0
BFFFF0
ENDCHAR
STARTCHAR ecaron
ENCODING 283
SWIDTH 524 0
DWIDTH 11 0
BBX 10 16 0 -1
BITMAP
018600
02FF00
00BC00
001000
01AA00
0BFFD0
2FFFF0
3F4FD0
7D2F40
BD7E00
7DF800
7FF180
2FEBE0
0FFFE0
02FF40
001000
ENDCHAR
STARTCHAR Gcircumflex
ENCODING 284
SWIDTH 665 0
DWIDTH 13 0
BBX 13 20 0 -1
BITMAP
00020000
001FC000
003EF000
00145000
00000000
006FF800
02FFFF40
0BFEBF00
1FD00900
3F400000
7E000000
7D000000
7D001F40
7E001F40
3F401F40
2FD01F40
0BFABF40
02FFFF40
007FF900
00014000
ENDCHAR
STARTCHAR gcircumflex
ENCODING 285
SWIDTH 607 0
DWIDTH 12 0
BBX 11 19 0 -4
BITMAP
002400
00BD00
02EF40
018600
01A904
0BFFDC
2FFFFC
3F42FC
7D00FC
BD00BC
7D00BC
7E01FC
3FEBFC
1FFFFC
02FFFC
0011F8
006BF4
00BFD0
00BE40
ENDCHAR
STARTCHAR Gbreve
ENCODING 286
SWIDTH 665 0
DWIDTH 13 0
BBX 13 19 0 -1
BITMAP
00189000
002EE000
001FD000
00010000
006FF800
02FFFF40
0BFEBF00
1FD00900
3F400000
7E000000
7D000000
7D001F40
7E001F40
3F401F40
2FD01F40
0BFABF40
02FFFF40
007FF900
00014000
ENDCHAR
STARTCHAR gbreve
ENCODING 287
SWIDTH 607 0
DWIDTH 12 0
BBX 11 19 0 -4
BITMAP
018500
01EF00
00FD00
001000
01A904
0BFFDC
2FFFFC
3F42FC
7D00FC
BD00BC
7D00BC
7E01FC
3FEBFC
1FFFFC
02FFFC
0011F8
006BF4
00BFD0
00BE40
ENDCHAR
STARTCHAR Gdotaccent
ENCODING 288
SWIDTH 665 0
DWIDTH 13 0
BBX 13 19 0 -1
BITMAP
00010000
000B8000
000B8000
00010000
006FF800
02FFFF40
0BFEBF00
1FD00900
3F400000
7E000000
7D000000
7D001F40
7E001F40
3F401F40
2FD01F40
0BFABF40
02FFFF40
007FF900
00014000
ENDCHAR
STARTCHAR gdotaccent
ENCODING 289
SWIDTH 607 0
DWIDTH 12 0
BBX 11 19 0 -4
BITMAP
001000
007800
007800
001000
01A904
0BFFDC
2FFFFC
3F42FC
7D00FC
BD00BC
7D00BC
7E01FC
3FEBFC
1FFFFC
02FFFC
0011F8
006BF4
00BFD0
00BE40
ENDCHAR
STARTCHAR Gcommaaccent
ENCODING 290
SWIDTH 665 0
DWIDTH 13 0
BBX 13 19 0 -5
BITMAP
006FF800
02FFFF40
0BFEBF00
1FD00900
3F400000
7E000000
7D000000
7D001F40
7E001F40
3F401F40
2FD01F40
0BFABF40
02FFFF40
007FF900
00014000
000B4000
000F8000
00078000
00030000
ENDCHAR
STARTCHAR gcommaaccent
ENCODING 291
SWIDTH 607 0
DWIDTH 12 0
BBX 11 20 0 -4
BITMAP
002000
007000
00B800
00BC00
001000
01A904
0BFFDC
2FFFFC
3F42FC
7D00FC
BD00BC
7D00BC
7E01FC
3FEBFC
1FFFFC
02FFFC
0011F8
006BF4
00BFD0
00BE40
ENDCHAR
STARTCHAR Hcircumflex
ENCODING 292
SWIDTH 689 0
DWIDTH 14 0
BBX 12 18 1 0
BITMAP
002400
00BD00
02FF40
008200
BC007E
BC007E
BC007E
BC007E
BC007E
BD55BE
BFFFFE
BFFFFE
BD55BE
BC007E
BC007E
BC007E
BC007E
BC007E
ENDCHAR
STARTCHAR hcircumflex
ENCODING 293
SWIDTH 562 0
DWIDTH 11 0
BBX 10 15 1 0
BITMAP
A42400
F8BD00
FAEF40
F88600
F9A400
FFFE00
FFFF80
FD1FC0
F807D0
F807D0
F807D0
F807D0
F807D0
F807D0
F807D0
ENDCHAR
STARTCHAR Hbar
ENCODING 294
SWIDTH 689 0
DWIDTH 14 0
BBX 14 14 0 0
BITMAP
2F001F80
6F555F80
BFFFFFE0
BFFFFFE0
6F556F90
2F556F80
2FFFFF80
2FFFFF80
2F556F80
2F001F80
2F001F80
2F001F80
2F001F80
2F001F80
ENDCHAR
STARTCHAR hbar
ENCODING 295
SWIDTH 562 0
DWIDTH 11 0
BBX 11 15 0 0
BITMAP
290000
FF8000
FF8000
7E4000
3E6900
3FFF80
3FFFE0
3F47F0
3E01F4
3E01F4
3E01F4
3E01F4
3E01F4
3E01F4
3E01F4
ENDCHAR
STARTCHAR Itilde
ENCODING 296
SWIDTH 270 0
DWIDTH 5 0
BBX 7 18 -1 0
BITMAP
2928
7FBC
7AF8
2450
0BC0
0BC0
0BC0
0BC0
0BC0
0BC0
0BC0
0BC0
0BC0
0BC0
0BC0
0BC0
0BC0
0BC0
ENDCHAR
STARTCHAR itilde
ENCODING 297
SWIDTH 235 0
DWIDTH 5 0
BBX 7 15 -1 0
BITMAP
2964
BFB8
B7F4
6050
0540
0F80
0F80
0F80
0F80
0F80
0F80
0F80
0F80
0F80
0F80
ENDCHAR
STARTCHAR Imacron
ENCODING 298
SWIDTH 270 0
DWIDTH 5 0
BBX 5 17 0 0
BITMAP
AA80
BFC0
5540
2F00
2F00
2F00
2F00
2F00
2F00
2F00
2F00
2F00
2F00
2F00
2F00
2F00
2F00
ENDCHAR
STARTCHAR imacron
ENCODING 299
SWIDTH 235 0
DWIDTH 5 0
BBX 5 14 0 0
BITMAP
AA80
FFC0
5540
1500
3E00
3E00
3E00
3E00
3E00
3E00
3E00
3E00
3E00
3E00
ENDCHAR
STARTCHAR Ibreve
ENCODING 300
SWIDTH 270 0
DWIDTH 5 0
BBX 5 18 0 0
BITMAP
6540
7BC0
2F40
0400
2F00
2F00
2F00
2F00
2F00
2F00
2F00
2F00
2F00
2F00
2F00
2F00
2F00
2F00
ENDCHAR
STARTCHAR ibreve
ENCODING 301
SWIDTH 235 0
DWIDTH 5 0
BBX 5 14 0 0
BITMAP
6240
BB80
7F00
2900
3E00
3E00
3E00
3E00
3E00
3E00
3E00
3E00
3E00
3E00
ENDCHAR
STARTCHAR Iogonek
ENCODING 302
SWIDTH 270 0
DWIDTH 5 0
BBX 5 18 0 -4
BITMAP
2F00
2F00
2F00
2F00
2F00
2F00
2F00
2F00
2F00
2F00
2F00
2F00
2F00
2F00
2C00
7A00
3F80
1900
ENDCHAR
STARTCHAR iogonek
ENCODING 303
SWIDTH 235 0
DWIDTH 5 0
BBX 5 19 0 -4
BITMAP
2E00
7F00
7F00
1400
1500
3E00
3E00
3E00
3E00
3E00
3E00
3E00
3E00
3E00
3E00
3800
B900
7F40
1900
ENDCHAR
STARTCHAR Idotaccent
ENCODING 304
SWIDTH 270 0
DWIDTH 5 0
BBX 3 18 1 0
BITMAP
10
78
78
10
BC
BC
BC
BC
BC
BC
BC
BC
BC
BC
BC
BC
BC
BC
ENDCHAR
STARTCHAR dotlessi
ENCODING 305
SWIDTH 235 0
DWIDTH 5 0
BBX 3 11 1 0
BITMAP
54
F8
F8
F8
F8
F8
F8
F8
F8
F8
F8
ENDCHAR
STARTCHAR IJ
ENCODING 306
SWIDTH 687 0
DWIDTH 14 0
BBX 12 14 1 0
BITMAP
BC007E
BC007E
BC007E
BC007E
BC007E
BC007E
BC007E
BC007E
BC007E
BC007D
BC01FD
BC7FF8
BC7FE0
BC7E40
ENDCHAR
STARTCHAR ij
ENCODING 307
SWIDTH 474 0
DWIDTH 9 0
BBX 9 19 0 -4
BITMAP
2E1F40
7F2FC0
7F1F80
140500
150540
3E1F40
3E1F40
3E1F40
3E1F40
3E1F40
3E1F40
3E1F40
3E1F40
3E1F40
3E1F40
003F00
0AFE00
1FF800
1F9000
ENDCHAR
STARTCHAR Jcircumflex
ENCODING 308
SWIDTH 416 0
DWIDTH 8 0
BBX 9 19 0 0
BITMAP
002400
00BD00
02EF40
008600
000000
00BD00
00BD00
00BD00
00BD00
00BD00
00BD00
00BD00
00BD00
00BD00
00FC00
02F800
BFF400
BFD000
BE4000
ENDCHAR
STARTCHAR jcircumflex
ENCODING 309
SWIDTH 237 0
DWIDTH 5 0
BBX 8 19 -3 -4
BITMAP
0060
01F8
03EE
0149
0054
00F8
00F8
00F8
00F8
00F8
00F8
00F8
00F8
00F8
00F8
02F4
AFE0
FFC0
FE00
ENDCHAR
STARTCHAR Kcommaaccent
ENCODING 310
SWIDTH 625 0
DWIDTH 13 0
BBX 12 19 1 -5
BITMAP
BC00FC
BC02F4
BC0BE0
BC1FC0
BC3F40
BCBD00
BEFD00
BFFF00
BFEF40
BF4FC0
BE0BE0
BC03F0
BC02F8
BC00FD
000000
00B400
00F800
007400
007000
ENDCHAR
STARTCHAR kcommaaccent
ENCODING 311
SWIDTH 539 0
DWIDTH 11 0
BBX 10 20 1 -5
BITMAP
A40000
F80000
F80000
F80000
F80550
F80FC0
F82F40
F8BD00
F9F800
FFF800
FFFD00
FFBE00
FE2F40
FC1FC0
F80BD0
000000
02D000
03E000
01E000
00C000
ENDCHAR
STARTCHAR kgreenlandic
ENCODING 312
SWIDTH 539 0
DWIDTH 11 0
BBX 10 11 1 0
BITMAP
A40550
F80FC0
F82F40
F8BD00
F9F800
FFF800
FFFD00
FFBE00
FE2F40
FC1FC0
F80BD0
ENDCHAR
STARTCHAR Lacute
ENCODING 313
SWIDTH 562 0
DWIDTH 11 0
BBX 10 18 1 0
BITMAP
001400
00BD00
02F900
01D000
BC0000
BC0000
BC0000
BC0000
BC0000
BC0000
BC0000
BC0000
BC0000
BC0000
BC0000
BEAAA0
BFFFF0
BFFFF0
ENDCHAR
STARTCHAR lacute
ENCODING 314
SWIDTH 235 0
DWIDTH 5 0
BBX 5 20 1 0
BITMAP
0240
0BC0
2F80
2D00
0000
A400
F800
F800
F800
F800
F800
F800
F800
F800
F800
F800
F800
F800
F800
F800
ENDCHAR
STARTCHAR Lcommaaccent
ENCODING 315
SWIDTH 562 0
DWIDTH 11 0
BBX 10 19 1 -5
BITMAP
BC0000
BC0000
BC0000
BC0000
BC0000
BC0000
BC0000
BC0000
BC0000
BC0000
BC0000
BEAAA0
BFFFF0
BFFFF0
000000
01E000
02F000
00E000
009000
ENDCHAR
STARTCHAR lcommaaccent
ENCODING 316
SWIDTH 235 0
DWIDTH 5 0
BBX 3 20 1 -5
BITMAP
A4
F8
F8
F8
F8
F8
F8
F8
F8
F8
F8
F8
F8
F8
F8
00
B4
F8
74
30
ENDCHAR
STARTCHAR Lcaron
ENCODING 317
SWIDTH 562 0
DWIDTH 11 0
BBX 10 14 1 0
BITMAP
BC7800
BCBC00
BC3800
BC3400
BC0000
BC0000
BC0000
BC0000
BC0000
BC0000
BC0000
BEAAA0
BFFFF0
BFFFF0
ENDCHAR
STARTCHAR lcaron
ENCODING 318
SWIDTH 369 0
DWIDTH 7 0
BBX 7 15 1 0
BITMAP
A400
F8F0
F9F4
F8B4
F860
F800
F800
F800
F800
F800
F800
F800
F800
F800
F800
ENDCHAR
STARTCHAR Ldot
ENCODING 319
SWIDTH 745 0
DWIDTH 15 0
BBX 13 14 1 0
BITMAP
BC000000
BC000000
BC000000
BC000000
BC000000
BC000600
BC001F80
BC001F80
BC000600
BC000000
BC000000
BEAAA000
BFFFF000
BFFFF000
ENDCHAR
STARTCHAR ldotaccent
ENCODING 320
SWIDTH 463 0
DWIDTH 9 0
BBX 8 15 1 0
BITMAP
A400
F800
F800
F800
F800
F800
F864
F8FD
F8FD
F864
F800
F800
F800
F800
F800
ENDCHAR
STARTCHAR Lslash
ENCODING 321
SWIDTH 585 0
DWIDTH 12 0
BBX 12 14 0 0
BITMAP
1F8000
1F8000
1F8000
1F8000
1FA000
1FF000
2FF000
BF8000
FF8000
9F8000
1F8000
1FEAA9
1FFFFE
1FFFFE
ENDCHAR
STARTCHAR lslash
ENCODING 322
SWIDTH 319 0
DWIDTH 6 0
BBX 7 15 0 0
BITMAP
0A40
1F40
1F40
1F40
1F40
1FA4
1FF4
2FF0
BF80
BF40
9F40
1F40
1F40
1F40
1F40
ENDCHAR
STARTCHAR Nacute
ENCODING 323
SWIDTH 689 0
DWIDTH 14 0
BBX 12 18 1 0
BITMAP
000200
000F80
003F80
002900
BE007E
BF407E
BF807E
BFD07E
BFF07E
BEF87E
BCFC7E
BC7E7E
BC2FBE
BC0FFE
BC0BFE
BC03FE
BC01FE
BC00BE
ENDCHAR
STARTCHAR nacute
ENCODING 324
SWIDTH 562 0
DWIDTH 11 0
BBX 10 16 1 0
BITMAP
000900
002F00
00BE00
007400
000000
41A400
EFFE00
FFFF80
FD1FC0
F807D0
F807D0
F807D0
F807D0
F807D0
F807D0
F807D0
ENDCHAR
STARTCHAR Ncommaaccent
ENCODING 325
SWIDTH 689 0
DWIDTH 14 0
BBX 12 19 1 -5
BITMAP
BE007E
BF407E
BF807E
BFD07E
BFF07E
BEF87E
BCFC7E
BC7E7E
BC2FBE
BC0FFE
BC0BFE
BC03FE
BC01FE
BC00BE
000000
003800
007D00
002C00
002800
ENDCHAR
STARTCHAR ncommaaccent
ENCODING 326
SWIDTH 562 0
DWIDTH 11 0
BBX 10 16 1 -5
BITMAP
41A400
EFFE00
FFFF80
FD1FC0
F807D0
F807D0
F807D0
F807D0
F807D0
F807D0
F807D0
000000
01E000
02F000
00E000
009000
ENDCHAR
STARTCHAR Ncaron
ENCODING 327
SWIDTH 689 0
DWIDTH 14 0
BBX 12 18 1 0
BITMAP
01C600
01FF40
007D00
001400
BE007E
BF407E
BF807E
BFD07E
BFF07E
BEF87E
BCFC7E
BC7E7E
BC2FBE
BC0FFE
BC0BFE
BC03FE
BC01FE
BC00BE
ENDCHAR
STARTCHAR ncaron
ENCODING 328
SWIDTH 562 0
DWIDTH 11 0
BBX 10 15 1 0
BITMAP
062800
0BFC00
02F000
004000
41A400
EFFE00
FFFF80
FD1FC0
F807D0
F807D0
F807D0
F807D0
F807D0
F807D0
F807D0
ENDCHAR
STARTCHAR napostrophe
ENCODING 329
SWIDTH 694 0
DWIDTH 14 0
BBX 13 14 0 0
BITMAP
B4000000
F8000000
74000000
70469000
01EFFD00
01FFFF40
01FD1F80
01F40BC0
01F40BC0
01F40BC0
01F40BC0
01F40BC0
01F40BC0
01F40BC0
ENDCHAR
STARTCHAR Eng
ENCODING 330
SWIDTH 689 0
DWIDTH 14 0
BBX 12 18 1 -4
BITMAP
BE007E
BF407E
BF807E
BFD07E
BFF07E
BEF87E
BCFC7E
BC7E7E
BC2FBE
BC0FFE
BC0BFE
BC03FE
BC01FD
BC00FD
0001FC
007FF8
00BFE0
007E40
ENDCHAR
STARTCHAR eng
ENCODING 331
SWIDTH 562 0
DWIDTH 11 0
BBX 10 15 1 -4
BITMAP
41A400
EFFE00
FFFF80
FD1FC0
F807D0
F807D0
F807D0
F807D0
F807D0
F807D0
F80BD0
001FC0
06BF40
07FE00
07E400
ENDCHAR
STARTCHAR Omacron
ENCODING 332
SWIDTH 777 0
DWIDTH 16 0
BBX 15 18 0 -1
BITMAP
002AA400
002FF400
00155000
006FF800
02FFFF40
0BFABFD0
1FD00BF0
3F4002F4
7E0000F8
7D0000BC
7D0000BC
7E0000FC
3F4002F8
2FD00BF0
0BFABFD0
02FFFF40
007FF900
00014000
ENDCHAR
STARTCHAR omacron
ENCODING 333
SWIDTH 579 0
DWIDTH 12 0
BBX 11 15 0 -1
BITMAP
02AA40
02FF40
015500
01AA00
0BFFD0
2FFFF4
3F42F8
7D00FC
BD00BC
7D00BC
7E01F8
2FEBF4
0FFFE0
02FF40
001000
ENDCHAR
STARTCHAR Obreve
ENCODING 334
SWIDTH 777 0
DWIDTH 16 0
BBX 15 19 0 -1
BITMAP
00196000
001EF000
000BE000
00014000
006FF800
02FFFF40
0BFABFD0
1FD00BF0
3F4002F4
7E0000F8
7D0000BC
7D0000BC
7E0000FC
3F4002F8
2FD00BF0
0BFABFD0
02FFFF40
007FF900
00014000
ENDCHAR
STARTCHAR obreve
ENCODING 335
SWIDTH 579 0
DWIDTH 12 0
BBX 11 16 0 -1
BITMAP
019600
01EF00
00BE00
001000
01AA00
0BFFD0
2FFFF4
3F42F8
7D00FC
BD00BC
7D00BC
7E01F8
2FEBF4
0FFFE0
02FF40
001000
ENDCHAR
STARTCHAR Ohungarumlaut
ENCODING 336
SWIDTH 777 0
DWIDTH 16 0
BBX 15 21 0 -1
BITMAP
00020400
000B9E00
002F7F40
002DBD00
00002000
00000000
006FF800
02FFFF40
0BFABFD0
1FD00BF0
3F4002F4
7E0000F8
7D0000BC
7D0000BC
7E0000FC
3F4002F8
2FD00BF0
0BFABFD0
02FFFF40
007FF900
00014000
ENDCHAR
STARTCHAR ohungarumlaut
ENCODING 337
SWIDTH 579 0
DWIDTH 12 0
BBX 11 17 0 -1
BITMAP
002040
00BDE0
02F6F4
02D7D0
004200
01AA00
0BFFD0
2FFFF4
3F42F8
7D00FC
BD00BC
7D00BC
7E01F8
2FEBF4
0FFFE0
02FF40
001000
ENDCHAR
STARTCHAR OE
ENCODING 338
SWIDTH 1125 0
DWIDTH 23 0
BBX 22 15 0 -1
BITMAP
006FF8BFFFF0
02FFFFFFFFF0
0BFABFFEAAA0
1FD00BFC0000
3F4002FC0000
7E0000FD5500
7D0000BFFE00
7D0000BFFE00
7E0000FD5500
3F4002FC0000
2FD00BFC0000
0BFABFFEAAA0
02FFFFFFFFF0
007FF9BFFFF0
000140000000
ENDCHAR
STARTCHAR oe
ENCODING 339
SWIDTH 924 0
DWIDTH 19 0
BBX 18 12 0 -1
BITMAP
01AA01AA00
0BFFDBFFD0
2FFFFFFFF0
3F42FF4FD0
7D00FD2F40
BD00BD7E00
7D00BDF800
7E01FFF180
2FEBFFEBE0
0FFFEFFFE0
02FF42FF40
0010001000
ENDCHAR
STARTCHAR Racute
ENCODING 340
SWIDTH 651 0
DWIDTH 13 0
BBX 12 19 1 0
BITMAP
000600
001F40
007E40
007400
000000
BFFE40
BFFFE0
BEAFF8
BC01FC
BC00BD
BC007D
BC00BD
BC01FC
BEABF8
BFFFE0
BFFFC0
BD5BD0
BC07E0
BC02F4
ENDCHAR
STARTCHAR racute
ENCODING 341
SWIDTH 414 0
DWIDTH 8 0
BBX 7 15 1 0
BITMAP
0060
01F4
07F4
0740
4154
EFFC
FFFC
FE54
FC00
F800
F800
F800
F800
F800
F800
ENDCHAR
STARTCHAR Rcommaaccent
ENCODING 342
SWIDTH 651 0
DWIDTH 13 0
BBX 12 19 1 -5
BITMAP
BFFE40
BFFFE0
BEAFF8
BC01FC
BC00BD
BC007D
BC00BD
BC01FC
BEABF8
BFFFE0
BFFFC0
BD5BD0
BC07E0
BC02F4
000000
007400
00B800
007800
003400
ENDCHAR
STARTCHAR rcommaaccent
ENCODING 343
SWIDTH 414 0
DWIDTH 8 0
BBX 7 16 1 -5
BITMAP
4154
EFFC
FFFC
FE54
FC00
F800
F800
F800
F800
F800
F800
0000
B400
F800
7400
7000
ENDCHAR
STARTCHAR Rcaron
ENCODING 344
SWIDTH 651 0
DWIDTH 13 0
BBX 12 18 1 0
BITMAP
028900
02FE00
00B800
002000
BFFE40
BFFFE0
BEAFF8
BC01FC
BC00BD
BC007D
BC00BD
BC01FC
BEABF8
BFFFE0
BFFFC0
BD5BD0
BC07E0
BC02F4
ENDCHAR
STARTCHAR rcaron
ENCODING 345
SWIDTH 414 0
DWIDTH 8 0
BBX 7 15 1 0
BITMAP
2490
7FD0
1F80
0500
4154
EFFC
FFFC
FE54
FC00
F800
F800
F800
F800
F800
F800
ENDCHAR
STARTCHAR Sacute
ENCODING 346
SWIDTH 610 0
DWIDTH 12 0
BBX 12 19 0 0
BITMAP
000180
0007D0
001F90
001D00
000000
06FFFC
1FFFFC
3FEAA8
7E0000
7D0000
7F5540
2FFFE0
0BFFFC
0155BD
00007E
00007E
2AAAFD
2FFFF8
2FFFD0
ENDCHAR
STARTCHAR sacute
ENCODING 347
SWIDTH 523 0
DWIDTH 10 0
BBX 10 15 0 0
BITMAP
000600
001F80
007F40
003800
015550
1FFFD0
3FFFD0
7E5540
7E5500
3FFFD0
0BFFE0
0056F0
6AABF0
7FFFD0
7FFF40
ENDCHAR
STARTCHAR Scircumflex
ENCODING 348
SWIDTH 610 0
DWIDTH 12 0
BBX 12 19 0 0
BITMAP
001800
007E00
01FF80
009200
000000
06FFFC
1FFFFC
3FEAA8
7E0000
7D0000
7F5540
2FFFE0
0BFFFC
0155BD
00007E
00007E
2AAAFD
2FFFF8
2FFFD0
ENDCHAR
STARTCHAR scircumflex
ENCODING 349
SWIDTH 523 0
DWIDTH 10 0
BBX 10 15 0 0
BITMAP
006000
01F800
07EE00
024900
015550
1FFFD0
3FFFD0
7E5540
7E5500
3FFFD0
0BFFE0
0056F0
6AABF0
7FFFD0
7FFF40
ENDCHAR
STARTCHAR Scedilla
ENCODING 350
SWIDTH 610 0
DWIDTH 12 0
BBX 12 19 0 -5
BITMAP
06FFFC
1FFFFC
3FEAA8
7E0000
7D0000
7F5540
2FFFE0
0BFFFC
0155BD
00007E
00007E
2AAAFD
2FFFF8
2FFFD0
001C00
002E00
005F00
00BF00
001400
ENDCHAR
STARTCHAR scedilla
ENCODING 351
SWIDTH 523 0
DWIDTH 10 0
BBX 10 16 0 -5
BITMAP
015550
1FFFD0
3FFFD0
7E5540
7E5500
3FFFD0
0BFFE0
0056F0
6AABF0
7FFFD0
7FFF40
007000
00BC00
016D00
02FC00
005000
ENDCHAR
STARTCHAR Scaron
ENCODING 352
SWIDTH 610 0
DWIDTH 12 0
BBX 12 19 0 0
BITMAP
00D200
01FF40
007D00
001400
000000
06FFFC
1FFFFC
3FEAA8
7E0000
7D0000
7F5540
2FFFE0
0BFFFC
0155BD
00007E
00007E
2AAAFD
2FFFF8
2FFFD0
ENDCHAR
STARTCHAR scaron
ENCODING 353
SWIDTH 523 0
DWIDTH 10 0
BBX 10 15 0 0
BITMAP
028900
03FE00
00B800
002000
015550
1FFFD0
3FFFD0
7E5540
7E5500
3FFFD0
0BFFE0
0056F0
6AABF0
7FFFD0
7FFF40
ENDCHAR
STARTCHAR Tcommaaccent
ENCODING 354
SWIDTH 578 0
DWIDTH 12 0
BBX 12 19 0 -5
BITMAP
BFFFFD
BFFFFD
AAFEA9
00BD00
00BD00
00BD00
00BD00
00BD00
00BD00
00BD00
00BD00
00BD00
00BD00
00BD00
000000
007800
00BC00
002C00
002400
ENDCHAR
STARTCHAR tcommaaccent
ENCODING 355
SWIDTH 437 0
DWIDTH 9 0
BBX 9 20 0 -5
BITMAP
1A0000
1F4000
1F4000
1F4000
6F9500
BFFF40
BFFF40
2F5500
1F4000
1F4000
1F4000
1F8000
0FFA40
07FF40
00BF40
000000
02D000
03E000
01E000
00C000
ENDCHAR
STARTCHAR Tcaron
ENCODING 356
SWIDTH 578 0
DWIDTH 12 0
BBX 12 18 0 0
BITMAP
018600
02FF40
00BD00
001400
BFFFFD
BFFFFD
AAFEA9
00BD00
00BD00
00BD00
00BD00
00BD00
00BD00
00BD00
00BD00
00BD00
00BD00
00BD00
ENDCHAR
STARTCHAR tcaron
ENCODING 357
SWIDTH 570 0
DWIDTH 11 0
BBX 12 15 0 0
BITMAP
1A0000
1F402C
1F407D
1F402D
6F9518
BFFF40
BFFF40
2F5500
1F4000
1F4000
1F4000
1F8000
0FFA40
07FF40
00BF40
ENDCHAR
STARTCHAR Tbar
ENCODING 358
SWIDTH 578 0
DWIDTH 12 0
BBX 12 14 0 0
BITMAP
BFFFFD
BFFFFD
AAFEA9
00BD00
00BD00
00BD00
01BD40
07FF80
07FF80
01BD40
00BD00
00BD00
00BD00
00BD00
ENDCHAR
STARTCHAR tbar
ENCODING 359
SWIDTH 437 0
DWIDTH 9 0
BBX 9 15 0 0
BITMAP
1A0000
1F4000
1F4000
1F4000
6F9500
BFFF40
BFFF40
2F5500
6FA400
BFF400
BFE400
1F8000
0BFA40
03FF40
00BF40
ENDCHAR
STARTCHAR Utilde
ENCODING 360
SWIDTH 673 0
DWIDTH 13 0
BBX 12 18 1 0
BITMAP
029280
07FBC0
07AF80
024500
FC007D
FC007D
FC007D
FC007D
FC007D
FC007D
FC007D
FC007D
FC007D
BD00BD
7F02FC
3FFFF4
0FFFE0
02FE40
ENDCHAR
STARTCHAR utilde
ENCODING 361
SWIDTH 562 0
DWIDTH 11 0
BBX 10 16 1 -1
BITMAP
0A4A00
1FEE00
2EBE00
191400
540540
F807D0
F807D0
F807D0
F807D0
F807D0
F807D0
FC0BD0
BEAFD0
3FFFD0
0BF890
004000
ENDCHAR
STARTCHAR Umacron
ENCODING 362
SWIDTH 673 0
DWIDTH 13 0
BBX 12 17 1 0
BITMAP
02AA00
02FF40
015500
FC007D
FC007D
FC007D
FC007D
FC007D
FC007D
FC007D
FC007D
FC007D
BD00BD
7F02FC
3FFFF4
0FFFE0
02FE40
ENDCHAR
STARTCHAR umacron
ENCODING 363
SWIDTH 562 0
DWIDTH 11 0
BBX 10 15 1 -1
BITMAP
0AA800
0FFC00
055400
540540
F807D0
F807D0
F807D0
F807D0
F807D0
F807D0
FC0BD0
BEAFD0
3FFFD0
0BF890
004000
ENDCHAR
STARTCHAR Ubreve
ENCODING 364
SWIDTH 673 0
DWIDTH 13 0
BBX 12 18 1 0
BITMAP
019500
01EF00
00BE00
001000
FC007D
FC007D
FC007D
FC007D
FC007D
FC007D
FC007D
FC007D
FC007D
BD00BD
7F02FC
3FFFF4
0FFFE0
02FE40
ENDCHAR
STARTCHAR ubreve
ENCODING 365
SWIDTH 562 0
DWIDTH 11 0
BBX 10 15 1 -1
BITMAP
062400
0BB800
03F400
544540
F807D0
F807D0
F807D0
F807D0
F807D0
F807D0
FC0BD0
BEAFD0
3FFFD0
0BF890
004000
ENDCHAR
STARTCHAR Uring
ENCODING 366
SWIDTH 673 0
DWIDTH 13 0
BBX 12 18 1 0
BITMAP
00BC00
00DA00
00ED00
006800
FC007D
FC007D
FC007D
FC007D
FC007D
FC007D
FC007D
FC007D
FC007D
BD00BD
7F02FC
3FFFF4
0FFFE0
02FE40
ENDCHAR
STARTCHAR uring
ENCODING 367
SWIDTH 562 0
DWIDTH 11 0
BBX 10 16 1 -1
BITMAP
02F000
077400
03B400
019000
540540
F807D0
F807D0
F807D0
F807D0
F807D0
F807D0
FC0BD0
BEAFD0
3FFFD0
0BF890
004000
ENDCHAR
STARTCHAR Uhungarumlaut
ENCODING 368
SWIDTH 673 0
DWIDTH 13 0
BBX 12 19 1 0
BITMAP
002040
00BDE0
02F7F4
02DBD0
000200
FC007D
FC007D
FC007D
FC007D
FC007D
FC007D
FC007D
FC007D
FC007D
BD00BD
7F02FC
3FFFF4
0FFFE0
02FE40
ENDCHAR
STARTCHAR uhungarumlaut
ENCODING 369
SWIDTH 562 0
DWIDTH 11 0
BBX 10 17 1 -1
BITMAP
018100
03E780
0BDFD0
0B6F00
000800
540540
F807D0
F807D0
F807D0
F807D0
F807D0
F807D0
FC0BD0
BEAFD0
3FFFD0
0BF890
004000
ENDCHAR
STARTCHAR Uogonek
ENCODING 370
SWIDTH 673 0
DWIDTH 13 0
BBX 12 18 1 -4
BITMAP
FC007D
FC007D
FC007D
FC007D
FC007D
FC007D
FC007D
FC007D
FC007D
BD00BD
7F02FC
3FFFF4
0FFFE0
02FE40
00E000
01E800
01FD00
006400
ENDCHAR
STARTCHAR uogonek
ENCODING 371
SWIDTH 562 0
DWIDTH 11 0
BBX 11 15 1 -4
BITMAP
540540
F807D0
F807D0
F807D0
F807D0
F807D0
F807D0
FC0BD0
BEAFD0
3FFFD0
0BF8D0
0042C0
0007A0
0003F8
000190
ENDCHAR
STARTCHAR Wcircumflex
ENCODING 372
SWIDTH 819 0
DWIDTH 16 0
BBX 15 20 1 -1
BITMAP
00060000
001F8000
007EE000
00248000
00000000
BC1F82F4
BC1F82F4
BC1F82F4
BC1F82F4
BC1F82F4
BC1F82F4
BC1F82F4
BC1F82F4
BC1F82F4
BC1F82F4
BC1F82F0
7FBFEBF0
3FFFFFD0
0BF9FF40
00400000
ENDCHAR
STARTCHAR wcircumflex
ENCODING 373
SWIDTH 756 0
DWIDTH 15 0
BBX 14 16 1 -1
BITMAP
00080000
003F4000
00BBC000
00614000
54150540
F82F07D0
F82F07D0
F82F07D0
F82F07D0
F82F07D0
F82F07D0
F83F0BD0
FEBFAFC0
7FFFFF40
1FE6FD00
00001000
ENDCHAR
STARTCHAR Ycircumflex
ENCODING 374
SWIDTH 620 0
DWIDTH 12 0
BBX 12 18 0 0
BITMAP
001800
007E00
01FB80
009200
7D003E
7D003E
7D003E
7D003E
7D003E
7E007E
2F81FD
1FFFF8
07FFE0
00BE40
007E00
007E00
007E00
007E00
ENDCHAR
STARTCHAR ycircumflex
ENCODING 375
SWIDTH 562 0
DWIDTH 11 0
BBX 10 19 1 -4
BITMAP
008000
02F400
0BBC00
061800
540540
F807D0
F807D0
F807D0
F807D0
F807D0
F807D0
F80BD0
BEAFD0
3FFFD0
0BFFC0
005FC0
06BF40
07FE00
07E400
ENDCHAR
STARTCHAR Ydieresis
ENCODING 376
SWIDTH 620 0
DWIDTH 12 0
BBX 12 17 0 0
BITMAP
02D3C0
02E3C0
004140
7D003E
7D003E
7D003E
7D003E
7D003E
7E007E
2F81FD
1FFFF8
07FFE0
00BE40
007E00
007E00
007E00
007E00
ENDCHAR
STARTCHAR Zacute
ENCODING 377
SWIDTH 586 0
DWIDTH 12 0
BBX 12 19 0 0
BITMAP
000240
000BC0
002F80
001D00
000000
BFFFFC
BFFFF4
6AAFF0
000FD0
001FC0
003F40
00BE00
00FD00
02F800
03F400
0BE000
1FFAA9
2FFFFD
7FFFFD
ENDCHAR
STARTCHAR zacute
ENCODING 378
SWIDTH 481 0
DWIDTH 10 0
BBX 10 15 0 0
BITMAP
000900
002F00
00BE00
007400
555540
BFFF80
BFFF00
15BE00
00FC00
01F400
03E000
0BD000
0FEA80
2FFFD0
7FFFD0
ENDCHAR
STARTCHAR Zdotaccent
ENCODING 379
SWIDTH 586 0
DWIDTH 12 0
BBX 12 17 0 0
BITMAP
007C00
007C00
001000
BFFFFC
BFFFF4
6AAFF0
000FD0
001FC0
003F40
00BE00
00FD00
02F800
03F400
0BE000
1FFAA9
2FFFFD
7FFFFD
ENDCHAR
STARTCHAR zdotaccent
ENCODING 380
SWIDTH 481 0
DWIDTH 10 0
BBX 10 14 0 0
BITMAP
01F000
01F000
004000
555540
BFFF80
BFFF00
15BE00
00FC00
01F400
03E000
0BD000
0FEA80
2FFFD0
7FFFD0
ENDCHAR
STARTCHAR Zcaron
ENCODING 381
SWIDTH 586 0
DWIDTH 12 0
BBX 12 19 0 0
BITMAP
01C600
01FF40
007D00
001400
000000
BFFFFC
BFFFF4
6AAFF0
000FD0
001FC0
003F40
00BE00
00FD00
02F800
03F400
0BE000
1FFAA9
2FFFFD
7FFFFD
ENDCHAR
STARTCHAR zcaron
ENCODING 382
SWIDTH 481 0
DWIDTH 10 0
BBX 10 15 0 0
BITMAP
061800
0BFD00
02F400
005000
555540
BFFF80
BFFF00
15BE00
00FC00
01F400
03E000
0BD000
0FEA80
2FFFD0
7FFFD0
ENDCHAR
STARTCHAR AEacute
ENCODING 508
SWIDTH 988 0
DWIDTH 20 0
BBX 18 19 1 0
BITMAP
0000024000
00000BC000
00002F8000
0000290000
0000000000
02FFFFFFF0
0FFFFFFFF0
3FFAFFAAA0
7F007D0000
BD007D0000
FC007E5500
FC007FFF00
FC007FFF00
FEAABE5500
FFFFFD0000
FFFFFD0000
FD55BFAAA0
FC007FFFF0
FC007FFFF0
ENDCHAR
STARTCHAR aeacute
ENCODING 509
SWIDTH 976 0
DWIDTH 20 0
BBX 19 16 0 -1
BITMAP
0000018000
000007E000
00001FD000
00000E0000
01A9046A80
0BFFDEFFF4
2FFFFFFFFC
3F42FFD2F4
7D00FF4BD0
BD00BF5F80
7D00BF7E00
7E01FFFC60
3FEBFFFAF8
1FFFEFFFF8
06FE49BFD0
0010000400
ENDCHAR
STARTCHAR Oslashacute
ENCODING 510
SWIDTH 777 0
DWIDTH 16 0
BBX 15 20 0 -1
BITMAP
00002000
0000F800
0003F800
00028000
00010000
006FFAE0
02FFFFD0
0BFABFD0
1FD03FF0
3F40BEF8
7E01F4F8
7D07D0BC
7D0F80BC
7E2F00FC
3FBD02F8
2FF80BF0
0FFABFD0
0BFFFF40
1FBFF900
00014000
ENDCHAR
STARTCHAR oslashacute
ENCODING 511
SWIDTH 579 0
DWIDTH 12 0
BBX 11 16 0 0
BITMAP
000240
000BC0
002F80
001D00
000000
01AA68
0BFFF4
2FFFF4
3F4BF8
7D2FFC
BD7DBC
7DF8BC
7FE1F8
2FEBF4
1FFFE0
3FFF40
ENDCHAR
STARTCHAR dotlessj
ENCODING 567
SWIDTH 237 0
DWIDTH 5 0
BBX 7 15 -3 -4
BITMAP
0054
00F8
00F8
00F8
00F8
00F8
00F8
00F8
00F8
00F8
00F8
02F4
AFE0
FFC0
FE00
ENDCHAR
STARTCHAR circumflex
ENCODING 710
SWIDTH 267 0
DWIDTH 5 0
BBX 5 4 0 10
BITMAP
0900
2F40
BBC0
6180
ENDCHAR
STARTCHAR caron
ENCODING 711
SWIDTH 267 0
DWIDTH 5 0
BBX 5 4 0 10
BITMAP
6180
BFC0
2F00
0400
ENDCHAR
STARTCHAR breve
ENCODING 728
SWIDTH 220 0
DWIDTH 4 0
BBX 5 4 0 10
BITMAP
9640
FB40
7F00
0400
ENDCHAR
STARTCHAR dotaccent
ENCODING 729
SWIDTH 125 0
DWIDTH 3 0
BBX 3 3 0 10
BITMAP
B4
F4
10
ENDCHAR
STARTCHAR ring
ENCODING 730
SWIDTH 192 0
DWIDTH 4 0
BBX 4 4 0 10
BITMAP
7D
EA
AE
28
ENDCHAR
STARTCHAR ogonek
ENCODING 731
SWIDTH 212 0
DWIDTH 4 0
BBX 4 5 0 -4
BITMAP
14
74
F5
BF
14
ENDCHAR
STARTCHAR tilde
ENCODING 732
SWIDTH 321 0
DWIDTH 6 0
BBX 7 4 0 10
BITMAP
6864
FFB4
F7F0
6050
ENDCHAR
STARTCHAR hungarumlaut
ENCODING 733
SWIDTH 384 0
DWIDTH 8 0
BBX 8 5 0 10
BITMAP
0810
2F78
7EBD
B5F4
1090
ENDCHAR
STARTCHAR uni0312
ENCODING 786
SWIDTH 192 0
DWIDTH 4 0
BBX 3 5 0 10
BITMAP
14
34
7C
7C
14
ENDCHAR
STARTCHAR uni0315
ENCODING 789
SWIDTH 132 0
DWIDTH 3 0
BBX 3 4 0 10
BITMAP
B4
F8
74
70
ENDCHAR
STARTCHAR uni0326
ENCODING 806
SWIDTH 193 0
DWIDTH 4 0
BBX 4 4 0 -5
BITMAP
3C
7D
2C
28
ENDCHAR
STARTCHAR pi
ENCODING 960
SWIDTH 555 0
DWIDTH 11 0
BBX 11 11 0 0
BITMAP
555554
BFFFF8
BFFFF8
1F9BD0
0F8BC0
0F8BC0
0F8BC0
0F8BC0
0F8BC0
0F8BC0
0F8BC0
ENDCHAR
STARTCHAR Wgrave
ENCODING 7808
SWIDTH 819 0
DWIDTH 16 0
BBX 15 20 1 -1
BITMAP
00600000
01F80000
00BE0000
001D0000
00000000
BC1F82F4
BC1F82F4
BC1F82F4
BC1F82F4
BC1F82F4
BC1F82F4
BC1F82F4
BC1F82F4
BC1F82F4
BC1F82F4
BC1F82F0
7FBFEBF0
3FFFFFD0
0BF9FF40
00400000
ENDCHAR
STARTCHAR wgrave
ENCODING 7809
SWIDTH 756 0
DWIDTH 15 0
BBX 14 16 1 -1
BITMAP
01800000
03E00000
02F80000
00680000
54150540
F82F07D0
F82F07D0
F82F07D0
F82F07D0
F82F07D0
F82F07D0
F83F0BD0
FEBFAFC0
7FFFFF40
1FE6FD00
00001000
ENDCHAR
STARTCHAR Wacute
ENCODING 7810
SWIDTH 819 0
DWIDTH 16 0
BBX 15 20 1 -1
BITMAP
00006000
0001F400
0007F400
00038000
00000000
BC1F82F4
BC1F82F4
BC1F82F4
BC1F82F4
BC1F82F4
BC1F82F4
BC1F82F4
BC1F82F4
BC1F82F4
BC1F82F4
BC1F82F0
7FBFEBF0
3FFFFFD0
0BF9FF40
00400000
ENDCHAR
STARTCHAR wacute
ENCODING 7811
SWIDTH 756 0
DWIDTH 15 0
BBX 14 16 1 -1
BITMAP
00009000
0002F000
000BE000
00074000
54150540
F82F07D0
F82F07D0
F82F07D0
F82F07D0
F82F07D0
F82F07D0
F83F0BD0
FEBFAFC0
7FFFFF40
1FE6FD00
00001000
ENDCHAR
STARTCHAR Wdieresis
ENCODING 7812
SWIDTH 819 0
DWIDTH 16 0
BBX 15 18 1 -1
BITMAP
00B4F000
00B8F000
00105000
BC1F82F4
BC1F82F4
BC1F82F4
BC1F82F4
BC1F82F4
BC1F82F4
BC1F82F4
BC1F82F4
BC1F82F4
BC1F82F4
BC1F82F0
7FBFEBF0
3FFFFFD0
0BF9FF40
00400000
ENDCHAR
STARTCHAR wdieresis
ENCODING 7813
SWIDTH 756 0
DWIDTH 15 0
BBX 14 15 1 -1
BITMAP
01E2D000
01F2D000
00504000
54150540
F82F07D0
F82F07D0
F82F07D0
F82F07D0
F82F07D0
F82F07D0
F83F0BD0
FEBFAFC0
7FFFFF40
1FE6FD00
00001000
ENDCHAR
STARTCHAR Ygrave
ENCODING 7922
SWIDTH 620 0
DWIDTH 12 0
BBX 12 19 0 0
BITMAP
024000
0BD000
07F400
00B000
000000
7D003E
7D003E
7D003E
7D003E
7D003E
7E007E
2F81FD
1FFFF8
07FFE0
00BE40
007E00
007E00
007E00
007E00
ENDCHAR
STARTCHAR ygrave
ENCODING 7923
SWIDTH 562 0
DWIDTH 11 0
BBX 10 19 1 -4
BITMAP
180000
7E0000
2F8000
074000
540540
F807D0
F807D0
F807D0
F807D0
F807D0
F807D0
F80BD0
BEAFD0
3FFFD0
0BFFC0
005FC0
06BF40
07FE00
07E400
ENDCHAR
STARTCHAR endash
ENCODING 8211
SWIDTH 418 0
DWIDTH 8 0
BBX 7 4 1 5
BITMAP
5550
BFF4
BFF4
5550
ENDCHAR
STARTCHAR emdash
ENCODING 8212
SWIDTH 719 0
DWIDTH 14 0
BBX 13 4 1 5
BITMAP
55555500
BFFFFF40
BFFFFF40
55555500
ENDCHAR
STARTCHAR quoteleft
ENCODING 8216
SWIDTH 246 0
DWIDTH 5 0
BBX 3 5 1 9
BITMAP
60
B0
F8
FC
B8
ENDCHAR
STARTCHAR quoteright
ENCODING 8217
SWIDTH 245 0
DWIDTH 5 0
BBX 4 5 0 9
BITMAP
2E
7F
3F
0E
1D
ENDCHAR
STARTCHAR quotesinglbase
ENCODING 8218
SWIDTH 264 0
DWIDTH 5 0
BBX 4 6 1 -3
BITMAP
64
FD
FD
7C
38
10
ENDCHAR
STARTCHAR quotedblleft
ENCODING 8220
SWIDTH 445 0
DWIDTH 9 0
BBX 7 5 1 9
BITMAP
6060
B0B0
F8F8
FDFC
B8B8
ENDCHAR
STARTCHAR quotedblright
ENCODING 8221
SWIDTH 444 0
DWIDTH 9 0
BBX 8 5 0 9
BITMAP
2E2E
7F7F
3F3F
0E0E
1D1D
ENDCHAR
STARTCHAR quotedblbase
ENCODING 8222
SWIDTH 463 0
DWIDTH 9 0
BBX 8 6 1 -3
BITMAP
6464
FDFC
FDFD
7C7C
3838
1010
ENDCHAR
STARTCHAR dagger
ENCODING 8224
SWIDTH 434 0
DWIDTH 9 0
BBX 8 18 0 -2
BITMAP
03E0
03E0
03E0
17F5
7FFF
7FFF
17E5
03E0
03E0
03E0
03E0
03E0
03E0
03E0
03E0
03E0
03E0
03E0
ENDCHAR
STARTCHAR daggerdbl
ENCODING 8225
SWIDTH 452 0
DWIDTH 9 0
BBX 9 18 0 -2
BITMAP
03F000
03F000
03F000
17F500
7FFF40
7FFF40
17F500
03F000
03F000
03F000
03F000
17F500
7FFF40
7FFF40
17F500
03F000
03F000
03F000
ENDCHAR
STARTCHAR bullet
ENCODING 8226
SWIDTH 354 0
DWIDTH 7 0
BBX 5 5 1 5
BITMAP
0400
3F40
7F80
7F40
2A00
ENDCHAR
STARTCHAR ellipsis
ENCODING 8230
SWIDTH 789 0
DWIDTH 16 0
BBX 14 4 1 -1
BITMAP
64090180
FD2F47E0
FD2F47E0
640A0280
ENDCHAR
STARTCHAR perthousand
ENCODING 8240
SWIDTH 998 0
DWIDTH 20 0
BBX 20 15 0 0
BITMAP
0100000000
1FD02E0000
3EF03C0000
38B4B40000
7875F00000
3CB6D00000
2FF7800000
0A8B400000
001E6A02E0
003DFF8FF8
0079E3DE2C
00F2D3DE2D
02E2D3DE2D
03C1FB8FBC
0B40BF07F4
ENDCHAR
STARTCHAR guilsinglleft
ENCODING 8249
SWIDTH 403 0
DWIDTH 8 0
BBX 6 10 1 0
BITMAP
01D0
07F0
1FD0
3F40
FD00
FE00
3F80
0BE0
02E0
0080
ENDCHAR
STARTCHAR guilsinglright
ENCODING 8250
SWIDTH 402 0
DWIDTH 8 0
BBX 6 10 1 0
BITMAP
7400
FD00
7F40
1FD0
07F0
07F0
2FC0
BF00
B800
2000
ENDCHAR
STARTCHAR fraction
ENCODING 8260
SWIDTH 477 0
DWIDTH 10 0
BBX 10 14 0 0
BITMAP
0002D0
0007C0
000B40
001E00
003D00
007800
00F000
02E000
03C000
0B4000
1F0000
2D0000
780000
F40000
ENDCHAR
STARTCHAR Euro
ENCODING 8364
SWIDTH 806 0
DWIDTH 16 0
BBX 15 16 0 -1
BITMAP
00000400
0001FFE0
000FFFFC
003FEAF8
00BE0020
0FFFF000
1FFFE000
1BFA9000
16F94000
3FFFD000
7FFFC000
00BE0020
003FEAF8
001FFFFC
0002FFE0
00001500
ENDCHAR
STARTCHAR trademark
ENCODING 8482
SWIDTH 606 0
DWIDTH 12 0
BBX 10 5 1 9
BITMAP
BF6FD0
183770
186330
186330
186330
ENDCHAR
STARTCHAR partialdiff
ENCODING 8706
SWIDTH 609 0
DWIDTH 12 0
BBX 12 16 0 0
BITMAP
001400
007F00
002F80
000FC0
0007E0
00ABF0
07FFF4
1FFFF8
3F41FC
3E00BD
7D007D
7E007D
3F00FC
2FEBF8
0BFFE0
02FF80
ENDCHAR
STARTCHAR product
ENCODING 8719
SWIDTH 632 0
DWIDTH 13 0
BBX 12 14 0 0
BITMAP
7FFFFF
7FFFFF
6FFBFA
07D2F0
07D2F0
07D2F0
07D2F0
07D2F0
07D2F0
07D2F0
07D2F0
07D2F0
07D2F0
07D2F0
ENDCHAR
STARTCHAR minus
ENCODING 8722
SWIDTH 543 0
DWIDTH 11 0
BBX 9 4 1 5
BITMAP
555540
BFFF80
BFFF80
155500
ENDCHAR
STARTCHAR infinity
ENCODING 8734
SWIDTH 771 0
DWIDTH 15 0
BBX 14 9 1 2
BITMAP
1FE1FE00
7FFFFF80
BEFFEFD0
F83F07D0
F42F03E0
FC2F87D0
BFFFFFC0
3FFBFF40
0A90A900
ENDCHAR
STARTCHAR approxequal
ENCODING 8776
SWIDTH 476 0
DWIDTH 10 0
BBX 8 8 1 3
BITMAP
2E2D
BFBD
BAFC
6464
1918
BFBD
BBFC
B4B4
ENDCHAR
STARTCHAR notequal
ENCODING 8800
SWIDTH 512 0
DWIDTH 10 0
BBX 9 13 1 0
BITMAP
003D00
007C00
55BD00
FFFF40
FFFF40
57E500
5BE500
FFFF40
FFFF40
6F5500
2E0000
3D0000
140000
ENDCHAR
STARTCHAR fi
ENCODING 64257
SWIDTH 650 0
DWIDTH 13 0
BBX 13 16 0 0
BITMAP
005A4000
02FF6E00
07FF7F40
0FD03F40
1F800500
6F955500
BFFFFF00
BFFFFF00
1F956F00
1F402F00
1F402F00
1F402F00
1F402F00
1F402F00
1F402F00
1F402F00
ENDCHAR
STARTCHAR fl
ENCODING 64258
SWIDTH 631 0
DWIDTH 13 0
BBX 12 16 0 0
BITMAP
005AA9
02FFFE
07FFFE
0FD03E
1F803E
6F953E
BFFE3E
BFFE3E
1F943E
1F403E
1F403E
1F403E
1F403E
1F403E
1F403E
1F403E
ENDCHAR
STARTCHAR .notdef
ENCODING -1
SWIDTH 279 0
DWIDTH 6 0
BBX 1 1 0 0
BITMAP
00
ENDCHAR
STARTCHAR .null
ENCODING -1
SWIDTH 0 0
DWIDTH 0 0
BBX 1 1 0 0
BITMAP
00
ENDCHAR
STARTCHAR nonmarkingreturn
ENCODING -1
SWIDTH 279 0
DWIDTH 6 0
BBX 1 1 0 0
BITMAP
00
ENDCHAR
ENDFONT
